<svg width="90" height="90" viewBox="0 0 90 90" fill="none" xmlns="http://www.w3.org/2000/svg">
<path d="M72.1863 31.7672C71.2875 31.4602 70.3822 31.1742 69.4705 30.9094C69.6217 30.2942 69.7611 29.6754 69.8889 29.0531C71.9455 19.0512 70.6008 10.9934 66.0111 8.34084C61.6166 5.79553 54.4096 8.44807 47.1393 14.7903C46.4244 15.416 45.7242 16.0606 45.0387 16.7238C44.5816 16.2832 44.1129 15.852 43.6324 15.4301C36.0123 8.64846 28.3746 5.79201 23.7902 8.45334C19.3957 11.0039 18.0896 18.5783 19.9406 28.0582C20.1258 28.9957 20.3338 29.9291 20.5646 30.8584C19.5141 31.1562 18.4725 31.4845 17.441 31.8428C8.51836 34.9629 2.8125 39.8549 2.8125 44.9279C2.8125 50.1697 8.93672 55.4256 18.2408 58.6125C18.9955 58.8692 19.7572 59.1076 20.526 59.328C20.2764 60.3229 20.0555 61.3289 19.8633 62.3461C18.1055 71.6625 19.4766 79.0576 23.8623 81.5924C28.3922 84.2098 35.9912 81.5203 43.3986 75.034C43.9846 74.5207 44.5705 73.9787 45.1564 73.408C45.8971 74.124 46.6588 74.819 47.4416 75.4928C54.6135 81.6768 61.6957 84.1746 66.0744 81.6328C70.6008 79.0067 72.0721 71.0613 70.1613 61.3951C70.0148 60.6569 69.8461 59.9033 69.6551 59.1346C70.1895 58.9764 70.7127 58.8129 71.2248 58.6442C80.8928 55.4326 87.191 50.2401 87.191 44.9332C87.1875 39.8356 81.2988 34.9119 72.1863 31.7672ZM49.5105 17.5149C55.7385 12.0815 61.5604 9.93693 64.2146 11.4697C67.0395 13.1028 68.1381 19.6875 66.3627 28.3237C66.2455 28.8862 66.1189 29.4469 65.983 30.0059C62.2663 29.1605 58.4974 28.5639 54.7014 28.2199C52.5279 25.0891 50.1453 22.1086 47.5699 19.299C48.2004 18.6873 48.8461 18.0926 49.507 17.5149H49.5105ZM27.726 49.2627C28.4889 50.7393 29.2863 52.1977 30.1184 53.6379C30.9656 55.1074 31.8486 56.5553 32.7674 57.9815C30.1554 57.6975 27.5598 57.2792 24.9908 56.7281C25.7361 54.3164 26.6537 51.8115 27.726 49.2627ZM27.726 40.7672C26.6713 38.2729 25.7783 35.819 25.0453 33.4494C27.4535 32.9098 30.0199 32.4686 32.6953 32.1346C31.7988 33.5338 30.9363 34.9535 30.1078 36.3938C29.2793 37.834 28.4836 39.2918 27.7207 40.7672H27.726ZM29.642 45.0158C30.7529 42.699 31.9494 40.4268 33.2314 38.199C34.5123 35.9725 35.8758 33.7969 37.3219 31.6723C39.832 31.4824 42.4055 31.3822 45.0053 31.3822C47.6051 31.3822 50.1943 31.4824 52.7027 31.674C54.1336 33.794 55.4889 35.9619 56.7686 38.1779C58.0482 40.394 59.2605 42.6557 60.4055 44.9631C59.2758 47.2881 58.0664 49.5697 56.7773 51.808C55.4988 54.0346 54.1512 56.2166 52.7344 58.3541C50.2295 58.5299 47.6367 58.6266 45 58.6266C42.3633 58.6266 39.8197 58.544 37.3605 58.384C35.9039 56.2524 34.5293 54.0674 33.2367 51.8291C31.9441 49.5908 30.7441 47.3197 29.6367 45.0158H29.642ZM59.8975 53.6133C60.7471 52.1391 61.5627 50.6455 62.3443 49.1326C63.4158 51.5621 64.3616 54.0451 65.1779 56.5717C62.5788 57.157 59.9508 57.6058 57.3047 57.9164C58.1977 56.4996 59.0619 55.0653 59.8975 53.6133ZM62.3092 40.769C61.5311 39.2865 60.7219 37.8217 59.8816 36.3744C59.0613 34.9471 58.2064 33.5373 57.317 32.1451C60.0082 32.4862 62.5904 32.9397 65.0109 33.4934C64.2327 35.9623 63.331 38.3905 62.3092 40.769ZM45.0404 21.8813C46.7957 23.7992 48.4531 25.8045 50.0063 27.8895C46.684 27.7313 43.3594 27.7313 40.0324 27.8895C41.6725 25.7203 43.3512 23.7076 45.0404 21.8813ZM25.6043 11.577C28.4273 9.93869 34.6693 12.2801 41.2488 18.1283C41.6689 18.5028 42.0926 18.8947 42.5145 19.3008C39.9258 22.11 37.5264 25.0878 35.332 28.2147C31.5444 28.5559 27.7829 29.1431 24.0715 29.9725C23.857 29.11 23.6637 28.2416 23.4914 27.3674C21.9006 19.241 22.9535 13.1151 25.6043 11.577ZM21.4893 55.8475C20.7861 55.6471 20.0918 55.4297 19.4062 55.1953C15.293 53.7891 11.8951 51.9539 9.5625 49.9553C7.47422 48.1641 6.41602 46.3764 6.41602 44.9279C6.41602 41.85 10.9969 37.9231 18.6363 35.26C19.5961 34.926 20.5641 34.6207 21.5402 34.3442C22.6748 37.9904 24.0489 41.5577 25.6535 45.0229C24.0298 48.5359 22.6387 52.1519 21.4893 55.8475ZM41.0238 72.3129C37.749 75.1817 34.4689 77.2155 31.5773 78.2403C28.9793 79.1596 26.9104 79.186 25.6605 78.4635C22.9992 76.9254 21.8918 70.9858 23.4018 63.0194C23.5811 62.0819 23.7861 61.1444 24.017 60.2069C27.7656 61.0144 31.5648 61.5658 35.3883 61.8574C37.6041 65.0006 40.0233 67.9953 42.6305 70.8223C42.1066 71.3373 41.5705 71.833 41.0238 72.3129ZM45.1406 68.2313C43.432 66.3838 41.727 64.3395 40.0641 62.1422C41.6801 62.2055 43.3254 62.2371 45 62.2371C46.7191 62.2371 48.4207 62.2002 50.0977 62.1246C48.5501 64.2431 46.8956 66.2812 45.1406 68.2313ZM67.0289 73.2569C66.5262 75.9709 65.5154 77.7815 64.2656 78.5057C61.6061 80.049 55.9195 78.0434 49.7883 72.7541C49.0852 72.1494 48.382 71.5008 47.6666 70.8205C50.223 67.9825 52.5855 64.9757 54.7383 61.8205C58.5829 61.4948 62.4006 60.9045 66.1641 60.0539C66.3363 60.75 66.4887 61.4321 66.6211 62.1C67.4666 66.3715 67.5879 70.2352 67.0289 73.2569ZM70.0875 55.2147C69.627 55.3676 69.1523 55.5153 68.6707 55.6594C67.4906 51.996 66.0629 48.4171 64.3975 44.9473C66.0004 41.5238 67.3722 37.9967 68.5037 34.3899C69.3668 34.6412 70.2053 34.9049 71.0121 35.1844C78.8203 37.8774 83.584 41.8641 83.584 44.9279C83.584 48.1975 78.4389 52.4408 70.0875 55.2147Z" fill="#149ECA"/>
<path d="M45.0001 52.4795C46.4961 52.4844 47.9598 52.0452 49.2061 51.2176C50.4523 50.3901 51.425 49.2113 52.0008 47.8306C52.5767 46.4498 52.7299 44.9293 52.441 43.4615C52.1522 41.9936 51.4342 40.6445 50.3781 39.585C49.322 38.5254 47.9752 37.8031 46.5084 37.5094C45.0415 37.2158 43.5204 37.364 42.1378 37.9354C40.7553 38.5067 39.5733 39.4755 38.7417 40.719C37.91 41.9626 37.4661 43.4249 37.4661 44.9209C37.464 45.912 37.6573 46.8939 38.0349 47.8102C38.4124 48.7266 38.9669 49.5596 39.6666 50.2616C40.3663 50.9636 41.1975 51.5208 42.1126 51.9013C43.0278 52.2819 44.0089 52.4784 45.0001 52.4795Z" fill="#149ECA"/>
</svg>
