<svg xmlns="http://www.w3.org/2000/svg" xmlns:xlink="http://www.w3.org/1999/xlink" width="500" zoomAndPan="magnify" viewBox="0 0 375 374.999991" height="500" preserveAspectRatio="xMidYMid meet" version="1.0"><defs><g/><clipPath id="647fd50031"><path d="M 3.859375 3.859375 L 371.742188 3.859375 L 371.742188 370.328125 L 3.859375 370.328125 Z M 3.859375 3.859375 " clip-rule="nonzero"/></clipPath><clipPath id="3c6f253ae7"><path d="M 187.800781 3.859375 C 86.210938 3.859375 3.859375 85.894531 3.859375 187.09375 C 3.859375 288.292969 86.210938 370.328125 187.800781 370.328125 C 289.386719 370.328125 371.742188 288.292969 371.742188 187.09375 C 371.742188 85.894531 289.386719 3.859375 187.800781 3.859375 Z M 187.800781 3.859375 " clip-rule="nonzero"/></clipPath><clipPath id="dd21e2cdec"><path d="M 28.769531 174.773438 L 346.230469 174.773438 L 346.230469 211.476562 L 28.769531 211.476562 Z M 28.769531 174.773438 " clip-rule="nonzero"/></clipPath></defs><g clip-path="url(#647fd50031)"><g clip-path="url(#3c6f253ae7)"><path fill="#130f1a" d="M 3.859375 3.859375 L 371.742188 3.859375 L 371.742188 370.328125 L 3.859375 370.328125 Z M 3.859375 3.859375 " fill-opacity="1" fill-rule="nonzero"/></g></g><g fill="#ffffff" fill-opacity="1"><g transform="translate(37.053752, 309.021334)"><g><path d="M 302.1875 -202.859375 C 302.832031 -202.859375 303.15625 -202.207031 303.15625 -200.90625 C 303.15625 -199.613281 302.832031 -198.96875 302.1875 -198.96875 C 286.820312 -198.96875 275.457031 -189.660156 268.09375 -171.046875 L 200.59375 -0.328125 C 200.375 0.535156 199.179688 0.96875 197.015625 0.96875 C 195.285156 0.96875 194.097656 0.535156 193.453125 -0.328125 L 151.25 -91.53125 L 115.21875 -0.328125 C 115.007812 0.535156 113.820312 0.96875 111.65625 0.96875 C 109.925781 0.96875 108.734375 0.535156 108.078125 -0.328125 L 27.265625 -175.921875 C 23.148438 -184.796875 19.195312 -190.851562 15.40625 -194.09375 C 11.625 -197.34375 6.488281 -198.96875 0 -198.96875 C -0.644531 -198.96875 -0.96875 -199.613281 -0.96875 -200.90625 C -0.96875 -202.207031 -0.644531 -202.859375 0 -202.859375 L 11.03125 -202.53125 C 17.09375 -202.101562 22.179688 -201.890625 26.296875 -201.890625 C 35.160156 -201.890625 44.351562 -202.101562 53.875 -202.53125 C 57.125 -202.75 61.34375 -202.859375 66.53125 -202.859375 C 67.1875 -202.859375 67.515625 -202.207031 67.515625 -200.90625 C 67.515625 -199.613281 67.1875 -198.96875 66.53125 -198.96875 C 60.257812 -198.96875 55.660156 -198.265625 52.734375 -196.859375 C 49.816406 -195.453125 48.359375 -193.015625 48.359375 -189.546875 C 48.359375 -186.304688 49.65625 -181.765625 52.25 -175.921875 L 119.4375 -31.8125 L 147.03125 -100.9375 L 112.296875 -175.921875 C 108.617188 -184.140625 104.832031 -190.035156 100.9375 -193.609375 C 97.039062 -197.179688 92.28125 -198.96875 86.65625 -198.96875 C 86.007812 -198.96875 85.6875 -199.613281 85.6875 -200.90625 C 85.6875 -202.207031 86.007812 -202.859375 86.65625 -202.859375 L 97.703125 -202.53125 C 102.890625 -202.101562 107.539062 -201.890625 111.65625 -201.890625 C 119.007812 -201.890625 126.148438 -202.101562 133.078125 -202.53125 C 135.242188 -202.75 138.164062 -202.859375 141.84375 -202.859375 C 142.488281 -202.859375 142.8125 -202.207031 142.8125 -200.90625 C 142.8125 -199.613281 142.488281 -198.96875 141.84375 -198.96875 C 137.945312 -198.96875 135.1875 -198.585938 133.5625 -197.828125 C 131.9375 -197.066406 131.125 -195.710938 131.125 -193.765625 C 131.125 -191.390625 133.179688 -185.441406 137.296875 -175.921875 L 159.375 -128.53125 L 176.890625 -172.671875 C 179.703125 -179.160156 181.109375 -184.570312 181.109375 -188.90625 C 181.109375 -195.613281 176.78125 -198.96875 168.125 -198.96875 C 167.695312 -198.96875 167.484375 -199.613281 167.484375 -200.90625 C 167.484375 -202.207031 167.695312 -202.859375 168.125 -202.859375 L 175.265625 -202.53125 C 179.160156 -202.101562 183.921875 -201.890625 189.546875 -201.890625 C 193.660156 -201.890625 198.53125 -202.101562 204.15625 -202.53125 L 217.140625 -202.859375 C 217.578125 -202.859375 217.796875 -202.207031 217.796875 -200.90625 C 217.796875 -199.613281 217.578125 -198.96875 217.140625 -198.96875 C 210.003906 -198.96875 203.726562 -196.859375 198.3125 -192.640625 C 192.90625 -188.421875 188.253906 -181.222656 184.359375 -171.046875 L 163.59375 -119.4375 L 204.8125 -31.8125 L 260.3125 -171.703125 C 262.039062 -176.460938 262.90625 -180.570312 262.90625 -184.03125 C 262.90625 -193.988281 255.113281 -198.96875 239.53125 -198.96875 C 238.882812 -198.96875 238.5625 -199.613281 238.5625 -200.90625 C 238.5625 -202.207031 238.882812 -202.859375 239.53125 -202.859375 L 253.5 -202.53125 C 260.851562 -202.101562 267.453125 -201.890625 273.296875 -201.890625 C 277.835938 -201.890625 282.921875 -202.101562 288.546875 -202.53125 Z M 302.1875 -202.859375 "/></g></g></g><g clip-path="url(#dd21e2cdec)"><path fill="#130f1a" d="M 28.769531 174.773438 L 346.230469 174.773438 L 346.230469 211.476562 L 28.769531 211.476562 Z M 28.769531 174.773438 " fill-opacity="1" fill-rule="nonzero"/></g></svg>