<svg xmlns="http://www.w3.org/2000/svg" xmlns:xlink="http://www.w3.org/1999/xlink" width="500" zoomAndPan="magnify" viewBox="0 0 375 374.999991" height="500" preserveAspectRatio="xMidYMid meet" version="1.0"><defs><g/><clipPath id="120ba18a1f"><path d="M 28.769531 174.773438 L 346.230469 174.773438 L 346.230469 211.476562 L 28.769531 211.476562 Z M 28.769531 174.773438 " clip-rule="nonzero"/></clipPath></defs><g fill="#ffffff" fill-opacity="1"><g transform="translate(4.399412, 317.657775)"><g><path d="M 367.765625 -246.890625 C 368.546875 -246.890625 368.9375 -246.097656 368.9375 -244.515625 C 368.9375 -242.929688 368.546875 -242.140625 367.765625 -242.140625 C 349.066406 -242.140625 335.238281 -230.816406 326.28125 -208.171875 L 244.125 -0.390625 C 243.851562 0.660156 242.40625 1.1875 239.78125 1.1875 C 237.664062 1.1875 236.210938 0.660156 235.421875 -0.390625 L 184.078125 -111.390625 L 140.234375 -0.390625 C 139.960938 0.660156 138.515625 1.1875 135.890625 1.1875 C 133.773438 1.1875 132.328125 0.660156 131.546875 -0.390625 L 33.1875 -214.09375 C 28.175781 -224.894531 23.363281 -232.269531 18.75 -236.21875 C 14.144531 -240.164062 7.894531 -242.140625 0 -242.140625 C -0.789062 -242.140625 -1.1875 -242.929688 -1.1875 -244.515625 C -1.1875 -246.097656 -0.789062 -246.890625 0 -246.890625 L 13.4375 -246.484375 C 20.800781 -245.960938 26.988281 -245.703125 32 -245.703125 C 42.789062 -245.703125 53.984375 -245.960938 65.578125 -246.484375 C 69.523438 -246.753906 74.660156 -246.890625 80.984375 -246.890625 C 81.765625 -246.890625 82.15625 -246.097656 82.15625 -244.515625 C 82.15625 -242.929688 81.765625 -242.140625 80.984375 -242.140625 C 73.335938 -242.140625 67.738281 -241.285156 64.1875 -239.578125 C 60.632812 -237.867188 58.859375 -234.90625 58.859375 -230.6875 C 58.859375 -226.738281 60.4375 -221.207031 63.59375 -214.09375 L 145.359375 -38.71875 L 178.9375 -122.84375 L 136.671875 -214.09375 C 132.191406 -224.101562 127.582031 -231.28125 122.84375 -235.625 C 118.101562 -239.96875 112.3125 -242.140625 105.46875 -242.140625 C 104.675781 -242.140625 104.28125 -242.929688 104.28125 -244.515625 C 104.28125 -246.097656 104.675781 -246.890625 105.46875 -246.890625 L 118.90625 -246.484375 C 125.21875 -245.960938 130.878906 -245.703125 135.890625 -245.703125 C 144.835938 -245.703125 153.523438 -245.960938 161.953125 -246.484375 C 164.585938 -246.753906 168.144531 -246.890625 172.625 -246.890625 C 173.414062 -246.890625 173.8125 -246.097656 173.8125 -244.515625 C 173.8125 -242.929688 173.414062 -242.140625 172.625 -242.140625 C 167.882812 -242.140625 164.523438 -241.675781 162.546875 -240.75 C 160.578125 -239.832031 159.59375 -238.191406 159.59375 -235.828125 C 159.59375 -232.929688 162.09375 -225.6875 167.09375 -214.09375 L 193.953125 -156.421875 L 215.28125 -210.140625 C 218.707031 -218.046875 220.421875 -224.632812 220.421875 -229.90625 C 220.421875 -238.0625 215.15625 -242.140625 204.625 -242.140625 C 204.09375 -242.140625 203.828125 -242.929688 203.828125 -244.515625 C 203.828125 -246.097656 204.09375 -246.890625 204.625 -246.890625 L 213.3125 -246.484375 C 218.050781 -245.960938 223.84375 -245.703125 230.6875 -245.703125 C 235.6875 -245.703125 241.613281 -245.960938 248.46875 -246.484375 L 264.265625 -246.890625 C 264.796875 -246.890625 265.0625 -246.097656 265.0625 -244.515625 C 265.0625 -242.929688 264.796875 -242.140625 264.265625 -242.140625 C 255.578125 -242.140625 247.941406 -239.570312 241.359375 -234.4375 C 234.773438 -229.300781 229.113281 -220.546875 224.375 -208.171875 L 199.09375 -145.359375 L 249.25 -38.71875 L 316.796875 -208.96875 C 318.910156 -214.757812 319.96875 -219.757812 319.96875 -223.96875 C 319.96875 -236.082031 310.484375 -242.140625 291.515625 -242.140625 C 290.734375 -242.140625 290.34375 -242.929688 290.34375 -244.515625 C 290.34375 -246.097656 290.734375 -246.890625 291.515625 -246.890625 L 308.5 -246.484375 C 317.457031 -245.960938 325.492188 -245.703125 332.609375 -245.703125 C 338.140625 -245.703125 344.328125 -245.960938 351.171875 -246.484375 Z M 367.765625 -246.890625 "/></g></g></g><g clip-path="url(#120ba18a1f)"><path fill="#23252b" d="M 28.769531 174.773438 L 346.394531 174.773438 L 346.394531 212.140625 L 28.769531 212.140625 Z M 28.769531 174.773438 " fill-opacity="1" fill-rule="nonzero"/></g></svg>