<svg width="90" height="90" viewBox="0 0 90 90" fill="none" xmlns="http://www.w3.org/2000/svg">
<path d="M75.5438 22.8639L48.2222 6.47755C47.2408 5.91807 46.1306 5.62384 45.001 5.62384C43.8713 5.62384 42.7611 5.91807 41.7798 6.47755L14.4563 22.8621C13.4717 23.4655 12.6593 24.3127 12.0976 25.3217C11.536 26.3308 11.2441 27.4676 11.2501 28.6225V61.3477C11.2442 62.5032 11.5361 63.6407 12.0977 64.6506C12.6593 65.6605 13.4716 66.5087 14.4563 67.1133L21.6212 71.3918L21.6616 71.4146C25.2792 73.2656 26.6644 73.2656 28.2692 73.2656C33.9188 73.2656 37.4292 69.6094 37.4292 63.7225V31.9922C37.4325 31.5961 37.2785 31.2148 37.001 30.932C36.7235 30.6493 36.3452 30.4882 35.9491 30.484H32.0151C31.619 30.4882 31.2407 30.6493 30.9632 30.932C30.6858 31.2148 30.5318 31.5961 30.5351 31.9922V63.7225C30.5494 64.1767 30.446 64.627 30.2351 65.0295C30.0241 65.432 29.7126 65.7732 29.3309 66.0199C28.2938 66.6527 26.7874 66.5191 25.0876 65.642L18.2216 61.5094C18.1953 61.4915 18.1738 61.4673 18.1591 61.4391C18.1444 61.4109 18.1369 61.3795 18.1372 61.3477V29.0848C18.1383 29.0477 18.1483 29.0114 18.1664 28.979C18.1844 28.9466 18.21 28.9189 18.2409 28.8984L44.9315 12.5508C44.9515 12.5409 44.9734 12.5357 44.9957 12.5357C45.018 12.5357 45.0399 12.5409 45.0599 12.5508L71.7663 28.8984C71.7967 28.9206 71.8213 28.9497 71.8381 28.9834C71.855 29.017 71.8635 29.0542 71.863 29.0918V61.3477C71.8636 61.381 71.8569 61.4141 71.8432 61.4445C71.8295 61.4749 71.8093 61.5018 71.7839 61.5234L45.0546 77.458C45.009 77.4738 44.9595 77.4738 44.914 77.458L38.0884 73.4045C37.8857 73.272 37.6517 73.1956 37.4099 73.183C37.1682 73.1703 36.9274 73.2219 36.712 73.3324L36.6522 73.3676C34.7679 74.4838 34.2616 74.7738 32.5143 75.4102C32.2296 75.5139 31.5599 75.7617 31.5019 76.4244C31.4438 77.0871 32.0802 77.5582 32.6462 77.8869L41.7692 83.4891C42.7413 84.0713 43.8529 84.3793 44.986 84.3803H45.088C46.1927 84.3629 47.2736 84.0556 48.2222 83.4891L75.5438 67.1186C76.528 66.5121 77.3398 65.6628 77.9013 64.6522C78.4628 63.6416 78.755 62.5037 78.7501 61.3477V28.6225C78.7556 27.468 78.4635 26.3315 77.9019 25.3228C77.3403 24.3142 76.5281 23.4673 75.5438 22.8639Z" fill="#2C7D27"/>
<path d="M54.1195 55.9072C47.5646 55.9072 46.1672 54.0756 45.7523 51.119C45.7056 50.7669 45.534 50.4434 45.2688 50.2072C45.0036 49.9711 44.6624 49.838 44.3074 49.8322H40.8269C40.4347 49.8406 40.0617 50.0039 39.7895 50.2866C39.5174 50.5692 39.3684 50.9482 39.375 51.3405C39.375 53.9033 40.275 62.2688 54.1265 62.2688C58.4121 62.2688 61.9769 61.2668 64.4326 59.3701C66.8882 57.4735 68.2031 54.7137 68.2031 51.4248C68.2031 44.8242 63.8965 43.0172 55.415 41.836C46.7929 40.6371 46.7929 40.0272 46.7929 38.6912C46.7929 37.7297 46.7929 35.478 53.0261 35.478C57.4611 35.478 59.8359 36.0387 60.5953 38.9936C60.6625 39.3212 60.8396 39.616 61.0973 39.8292C61.3549 40.0424 61.6777 40.1613 62.0121 40.166H65.5048C65.7107 40.164 65.9137 40.1181 66.1005 40.0314C66.2872 39.9447 66.4533 39.8192 66.5877 39.6633C66.8562 39.3498 66.9901 38.943 66.9603 38.5313C66.5086 32.2823 61.94 29.1129 53.0314 29.1129C44.9349 29.1129 40.1027 32.7604 40.1027 38.8688C40.1027 45.566 45.1107 47.4592 52.6341 48.2432C61.4232 49.152 61.4232 50.4774 61.4232 51.6481C61.4285 53.4727 60.6709 55.9072 54.1195 55.9072Z" fill="#2C7D27"/>
</svg>
