<svg width="40" height="40" viewBox="0 0 40 40" fill="none" xmlns="http://www.w3.org/2000/svg">
<path d="M33.2856 7.42859H6.54275C6.24723 7.42859 5.9638 7.54599 5.75483 7.75496C5.54586 7.96392 5.42847 8.24735 5.42847 8.54287V27.4857C5.42847 28.0768 5.66326 28.6436 6.0812 29.0616C6.49914 29.4795 7.06598 29.7143 7.65704 29.7143H32.1713C32.7624 29.7143 33.3292 29.4795 33.7472 29.0616C34.1651 28.6436 34.3999 28.0768 34.3999 27.4857V8.54287C34.3999 8.24735 34.2825 7.96392 34.0735 7.75496C33.8646 7.54599 33.5811 7.42859 33.2856 7.42859ZM19.9142 19.2888L9.40786 9.65716H30.4205L19.9142 19.2888ZM15.8345 18.5714L7.65704 26.0664V11.0765L15.8345 18.5714ZM17.4836 20.0827L19.1551 21.6218C19.3606 21.8105 19.6295 21.9152 19.9086 21.9152C20.1877 21.9152 20.4566 21.8105 20.6621 21.6218L22.3336 20.0827L30.4121 27.4857H9.40786L17.4836 20.0827ZM23.9939 18.5714L32.1713 11.0751V26.0678L23.9939 18.5714Z" fill="#EEEEEE"/>
</svg>
