<svg width="90" height="90" viewBox="0 0 90 90" fill="none" xmlns="http://www.w3.org/2000/svg">
<path d="M5.625 5.625V84.375H84.375V5.625H5.625ZM47.8125 66.7969C47.8125 74.4627 43.2844 78.1998 36.7295 78.1998C30.8092 78.1998 27.3727 75.1342 25.6289 71.434L31.6547 67.7865C32.8166 69.8484 33.699 71.5922 36.2355 71.5922C38.3449 71.5922 40.0781 70.6412 40.0781 66.941V42.1875H47.8125V66.7969ZM65.2764 78.024C58.4051 78.024 53.9648 74.9232 51.7975 70.6412L57.832 67.1484C59.4141 69.7395 61.4795 71.4656 65.127 71.4656C68.1926 71.4656 69.9732 70.1086 69.9732 67.9939C69.9732 65.4574 68.1398 64.5592 64.7561 63.0721L62.9068 62.2775C57.5666 60.0064 54.0264 57.1518 54.0264 51.1242C54.0264 45.5748 58.2539 41.5213 64.8615 41.5213C69.5672 41.5213 72.9475 42.9838 75.382 47.2658L69.6094 50.9766C68.3402 48.7037 66.9727 47.8125 64.8527 47.8125C62.6854 47.8125 61.3107 49.1871 61.3107 50.9766C61.3107 53.1967 62.6853 54.0949 65.8564 55.4695L67.7057 56.2623C73.9969 58.9588 77.5389 61.7115 77.5389 67.892C77.5406 74.5541 72.3076 78.024 65.2764 78.024Z" fill="#EFD81D"/>
</svg>
