<svg width="90" height="90" viewBox="0 0 90 90" fill="none" xmlns="http://www.w3.org/2000/svg">
<g clip-path="url(#clip0_316_58)">
<path d="M89.9614 57.6685C89.703 55.5732 88.6413 53.7556 86.7974 52.2597C86.7745 52.2318 86.7492 52.206 86.7218 52.1824L86.6286 52.1156L86.5988 52.0945L85.6197 51.3914L85.5863 51.3668L85.4614 51.2789C85.4157 51.2522 85.3666 51.2315 85.3156 51.2174C82.2183 49.3734 77.0907 48.0814 69.2456 50.85C67.3736 47.7 67.1609 45.1758 68.4142 41.3086C68.6374 40.6353 68.43 40.1906 67.762 39.9023C66.4191 39.331 64.5804 39.6228 63.2761 39.9674C62.6679 40.1256 62.3023 40.4701 62.1863 40.9922C61.3601 44.8593 58.9589 48.3926 56.6368 51.8027L56.4997 52.0031C55.0689 48.9691 55.3659 46.6189 56.3626 43.6746C56.5613 43.0875 56.4048 42.6972 55.8546 42.4054C54.3183 41.6127 52.0138 42.1576 51.0962 42.4283C49.9325 42.7675 48.6845 45.9123 47.2906 49.6775C46.939 50.625 46.6366 51.4353 46.4556 51.8133C46.0249 52.6922 45.6136 53.6941 45.1777 54.7576C44.1933 57.164 43.0841 59.8728 41.4986 61.5744C40.922 60.3 41.829 58.2908 42.7097 56.3414C43.7521 54.0369 44.7365 51.859 43.6027 50.4685C43.4234 50.2487 43.2009 50.0679 42.9491 49.9373C42.6973 49.8067 42.4214 49.7291 42.1384 49.7092C41.7692 49.681 41.3986 49.7413 41.0573 49.8849C41.1751 48.8918 41.1804 48.1078 40.8904 47.1603C40.4755 45.8086 39.398 45.0509 37.9144 45.0914C34.5359 45.1898 31.6777 47.707 29.8724 49.8023C28.67 51.2086 26.0052 52.2808 23.6656 53.2213C22.7409 53.6133 21.862 53.9648 21.129 54.3164C19.9601 53.3285 18.4747 52.3318 16.9103 51.2789C12.5157 48.3293 7.53586 44.9842 7.3636 40.449C7.1175 33.75 14.7464 28.9986 21.405 25.6078C26.4517 23.0414 30.8392 21.3398 34.8189 20.4099C40.4087 19.1039 45.1302 19.3675 48.8497 21.1904C50.8853 22.1871 51.838 24.3545 51.2333 26.5834C49.6513 32.3754 43.0964 36.3445 37.4907 38.1304C34.114 39.2062 31.24 39.6562 28.7017 39.5086C25.52 39.324 22.922 37.7279 21.8111 37.0476C21.6331 36.9261 21.4449 36.8202 21.2486 36.7312L21.1976 36.7189C21.097 36.6939 20.9914 36.697 20.8925 36.7281C20.7936 36.7591 20.7051 36.8167 20.6368 36.8947C20.4083 37.1672 20.4892 37.5978 20.5718 37.8158C21.6529 40.6406 23.8853 42.4248 27.2058 43.1191C28.2925 43.3367 29.3987 43.4422 30.507 43.4338C38.2782 43.4338 48.1941 38.9531 51.8363 35.2634C54.32 32.7498 56.1288 30.1658 56.8777 25.7097C57.6599 21.0427 54.4958 17.7996 51.272 16.3054C43.4374 12.6896 34.5394 14.1187 28.4538 15.9539C21.3347 18.1002 13.9695 22.0025 8.24954 26.6642C1.19719 32.407 -1.35164 37.7384 0.669848 42.5285C2.74582 47.4381 7.80832 50.509 12.7038 53.4797C14.2859 54.4377 15.7906 55.35 17.1458 56.2922C16.738 56.4908 16.3214 56.6929 15.8978 56.8951C11.788 58.8867 7.12629 61.1279 4.54055 64.8316C2.66321 67.5299 2.31164 70.2158 3.49641 72.8156C4.12922 74.199 5.25422 75.1377 6.81692 75.6052C7.62982 75.8356 8.47169 75.9474 9.31653 75.9375C12.3593 75.9375 15.7079 74.707 17.5308 73.5697C20.7511 71.5482 22.8376 68.8342 23.7341 65.5031C24.5322 62.5394 24.3405 59.5951 23.1804 56.9672L27.1267 54.9773C25.223 61.3054 26.682 65.0847 28.2851 67.1695C28.8757 67.9377 29.9409 68.4 31.131 68.4211C32.321 68.4422 33.4161 67.9939 34.0349 67.231C35.2056 65.7808 36.0704 64.0845 36.8667 62.3883C36.8245 63.4957 36.8773 64.6172 37.2552 65.5681C37.5945 66.4242 38.1534 66.992 38.8741 67.2099C39.6405 67.4437 40.5388 67.2468 41.4036 66.6562C45.3007 63.9896 47.9655 57.5894 50.1066 52.4443C50.4107 51.7131 50.7025 51.0099 50.9855 50.3525C51.5152 52.2482 52.252 54.0797 53.1827 55.814C53.3902 56.1902 53.3726 56.3554 53.0913 56.6648C52.6677 57.1289 52.0771 57.6896 51.4513 58.2838C49.5564 60.082 47.1974 62.3267 46.881 64.3007C46.7579 65.0918 47.3029 65.8125 48.1484 65.9759C50.6919 66.4822 53.7558 65.7422 56.3468 63.9984C58.7023 62.4164 59.5882 60.2103 58.9835 57.4611C58.3982 54.8138 59.7341 51.5267 62.9544 47.6842C63.4818 49.8867 64.1849 51.6674 65.1552 53.2265L65.1288 53.2476C62.7839 55.2955 59.5706 58.0992 60.0699 61.5006C60.1117 61.824 60.2206 62.1352 60.3895 62.4143C60.5584 62.6933 60.7836 62.9341 61.0507 63.1213C61.3362 63.314 61.6585 63.4457 61.9973 63.508C62.336 63.5703 62.6841 63.5619 63.0195 63.4834C66.0904 62.8382 68.4019 61.5392 70.0824 59.516C71.7628 57.4927 71.1493 55.2498 70.5833 53.5095C74.9779 52.3177 78.8907 52.3476 82.554 53.5974C84.6107 54.3006 86.0855 55.4554 86.9363 57.0498C88.0068 59.0554 87.4284 60.9064 85.3032 62.2617C84.6511 62.6783 84.3365 62.9332 84.3171 63.2549C84.3128 63.3295 84.3265 63.4041 84.3571 63.4723C84.3877 63.5406 84.4343 63.6004 84.4929 63.6468C84.739 63.849 85.4984 64.2006 87.2158 63.1195C88.7978 62.1263 89.7259 60.7746 89.9632 59.0765C90.0109 58.6084 90.0104 58.1366 89.9614 57.6685ZM19.6964 62.0736L19.6788 62.2986C19.4046 64.872 18.0968 67.115 15.7853 68.9783C14.3333 70.149 12.7566 70.8679 11.3468 71.005C10.3624 71.1 9.647 70.9664 9.22161 70.606C8.90344 70.3371 8.73293 69.9345 8.69426 69.3756C8.40598 64.8967 15.4302 60.4459 19.3835 58.9816C19.6657 59.9865 19.7715 61.0326 19.6964 62.0736ZM37.6876 49.442C37.0372 53.1492 35.1405 60.147 32.1593 62.8629C32.0169 62.9929 31.8974 63.0386 31.8429 63.0263C31.7884 63.014 31.7462 62.949 31.7023 62.8506C30.7073 60.5443 31.0747 56.649 32.5812 53.5886C33.7396 51.2297 35.3937 49.667 37.2429 49.1941C37.3197 49.1729 37.3988 49.1617 37.4784 49.1607C37.5407 49.1563 37.6026 49.1731 37.6542 49.2082C37.676 49.2426 37.6902 49.2812 37.696 49.3215C37.7017 49.3618 37.6989 49.4028 37.6876 49.442ZM52.3636 62.956C51.8029 63.5414 51.0347 63.4623 51.2157 63.2478L54.0704 60.2174C53.8402 61.2597 53.1599 62.1228 52.3636 62.956ZM64.206 60.3351C63.9345 60.4689 63.6408 60.5517 63.3394 60.5795C63.2585 58.9851 64.8036 57.1904 66.3277 55.9933C66.7372 57.6562 65.8988 59.414 64.206 60.3351Z" fill="#BF4080"/>
</g>
<defs>
<clipPath id="clip0_316_58">
<rect width="90" height="90" fill="white"/>
</clipPath>
</defs>
</svg>
