<svg width="90" height="90" viewBox="0 0 90 90" fill="none" xmlns="http://www.w3.org/2000/svg">
<path d="M55.1953 6.3949C51.9276 5.85701 47.1446 5.60916 43.8979 5.62498C40.8548 5.6285 37.8173 5.88604 34.817 6.3949C26.7768 7.80115 25.3125 10.7367 25.3125 16.1578V22.5H45V25.3125H18.9176C11.6121 25.3125 5.68303 34.0435 5.62503 44.8453V45C5.62249 46.8885 5.80679 48.7727 6.17522 50.625C7.80823 58.7601 12.8953 64.6875 18.9176 64.6875H22.5V55.1953C22.5 49.6933 26.1633 44.6572 32.168 43.5761L33.903 43.3599H55.1953C56.0896 43.3634 56.9802 43.2452 57.8426 43.0084C59.8142 42.4819 61.5557 41.3165 62.7942 39.6946C64.0328 38.0728 64.6987 36.086 64.6875 34.0453V16.1578C64.6875 11.0742 60.3492 7.24041 55.1953 6.3949ZM34.2651 18.5449C33.5558 18.5473 32.8619 18.3391 32.2711 17.9466C31.6804 17.5541 31.2196 16.995 30.947 16.3402C30.6745 15.6854 30.6026 14.9644 30.7403 14.2687C30.8781 13.573 31.2194 12.9339 31.7209 12.4323C32.2224 11.9308 32.8615 11.5896 33.5572 11.4518C34.253 11.314 34.9739 11.386 35.6287 11.6585C36.2835 11.931 36.8426 12.3919 37.2351 12.9826C37.6276 13.5733 37.8359 14.2673 37.8334 14.9765C37.8337 15.4452 37.7415 15.9093 37.5623 16.3424C37.383 16.7754 37.1202 17.1689 36.7888 17.5003C36.4574 17.8317 36.0639 18.0945 35.6309 18.2737C35.1979 18.453 34.7337 18.5451 34.2651 18.5449Z" fill="#224A6B"/>
<path d="M83.5453 38.1445C81.6645 30.6545 76.7936 25.3125 71.0824 25.3125H67.9693V33.6533C67.9693 40.609 63.399 45.6451 57.8197 46.5082C57.2562 46.5956 56.6867 46.6396 56.1164 46.64H34.8188C33.9154 46.6392 33.0156 46.7544 32.1416 46.9828C28.2199 48.0129 25.3125 51.2754 25.3125 55.5064V73.3957C25.3125 78.4934 30.4348 81.4816 35.4604 82.9424C41.4738 84.6914 48.0252 85.0078 55.2217 82.9424C60.0012 81.5766 64.6875 78.815 64.6875 73.3957V67.5H45V64.6875H71.0824C76.2574 64.6875 80.7416 60.3053 82.9389 53.9104C83.9038 51.0393 84.389 48.0288 84.375 45C84.3799 42.6895 84.1013 40.3871 83.5453 38.1445ZM55.6365 71.0156C56.3458 71.0132 57.0397 71.2214 57.6305 71.6139C58.2212 72.0065 58.682 72.5656 58.9546 73.2203C59.2271 73.8751 59.299 74.5961 59.1613 75.2918C59.0235 75.9875 58.6822 76.6267 58.1807 77.1282C57.6792 77.6297 57.0401 77.971 56.3443 78.1087C55.6486 78.2465 54.9277 78.1745 54.2729 77.902C53.6181 77.6295 53.059 77.1686 52.6665 76.5779C52.274 75.9872 52.0657 75.2932 52.0682 74.584C52.0679 74.1153 52.1601 73.6512 52.3393 73.2182C52.5186 72.7851 52.7814 72.3917 53.1128 72.0603C53.4442 71.7289 53.8377 71.466 54.2707 71.2868C54.7037 71.1075 55.1679 71.0154 55.6365 71.0156Z" fill="#FFE17C"/>
</svg>
