<svg width="544" height="428" viewBox="0 0 544 428" fill="none" xmlns="http://www.w3.org/2000/svg">
<g clip-path="url(#clip0_171_16)">
<path d="M316.879 75.4514C327.075 75.4514 335.34 66.5106 335.34 55.4815C335.34 44.4525 327.075 35.5117 316.879 35.5117C306.684 35.5117 298.418 44.4525 298.418 55.4815C298.418 66.5106 306.684 75.4514 316.879 75.4514Z" fill="#F2F2F2"/>
<path d="M460.084 371.827C487.524 349.219 500.63 311.227 492.425 274.985C492.221 274.085 492.006 273.187 491.779 272.29C486.34 250.778 472.882 230.332 453.269 223.458C436.8 217.686 418.824 222.125 401.643 219.829C367.916 215.324 341.768 185.804 323.37 154.896C304.972 123.988 290.832 89.3911 266.384 63.8566C226.087 21.7675 160.351 12.7056 110.388 40.1025C60.425 67.4995 28.599 128.282 29.9563 188.859C31.3137 249.437 64.5579 307.353 112.837 338.081C130.572 349.369 151.085 357.366 171.5 354.568C189.214 352.14 205.308 341.844 222.939 338.787C250.657 333.981 278.199 347.538 302.174 363.336C326.148 379.135 349.306 397.86 376.55 405.184C403.003 412.296 435.777 391.855 460.084 371.827Z" fill="#F2F2F2"/>
<path d="M420.66 41.3746C420.058 40.9408 419.45 40.5294 418.848 40.1106C401.461 28.081 382.824 18.3082 363.323 10.9943L358.801 78.4712H330.136V1.14425C328.332 0.740374 326.513 0.358938 324.695 -6.10352e-05V78.4712H290.63C271.877 78.4712 253.892 70.4125 240.632 56.068C227.371 41.7235 219.922 22.2682 219.922 1.982C218.096 2.40831 216.285 2.86447 214.473 3.35062V78.4712H186.728L182.42 14.1281C162.38 22.4421 143.355 33.3755 125.768 46.6848C125.464 46.9092 125.159 47.141 124.862 47.3654C123.334 48.5247 121.827 49.7064 120.327 50.903V308.328H202.097L200.652 286.676L192.701 167.795H352.821L344.87 286.676L343.425 308.328H424.29V43.9773C423.087 43.0948 421.877 42.2272 420.66 41.3746ZM214.473 148.162H191.388L187.122 84.3647H214.473V148.162ZM324.695 148.162H285.922V146.898C285.922 146.29 285.811 145.689 285.596 145.127C285.381 144.566 285.065 144.056 284.668 143.627C284.27 143.198 283.798 142.857 283.279 142.625C282.76 142.394 282.204 142.275 281.642 142.276H264.786C264.225 142.276 263.669 142.395 263.15 142.627C262.632 142.859 262.161 143.2 261.764 143.629C261.367 144.058 261.053 144.568 260.838 145.129C260.623 145.69 260.513 146.291 260.513 146.898V148.162H219.922V84.3647H324.695V148.162ZM330.136 148.162V84.3647H358.407L354.141 148.162H330.136Z" fill="#3F3D56"/>
<path d="M0 324.812C6.00629 332.511 12.5028 339.746 19.4419 346.465L524.558 347.213C531.497 340.494 537.994 333.259 544 325.56L0 324.812Z" fill="#3F3D56"/>
<path d="M342.536 255.481V319.58C342.536 320.397 342.836 321.181 343.37 321.758C343.904 322.336 344.628 322.661 345.383 322.661H433.193C433.948 322.661 434.672 322.336 435.206 321.758C435.74 321.181 436.041 320.397 436.041 319.58V255.481C436.039 254.665 435.739 253.883 435.205 253.306C434.671 252.729 433.948 252.405 433.193 252.404H345.383C344.629 252.405 343.906 252.729 343.372 253.306C342.838 253.883 342.537 254.665 342.536 255.481Z" fill="#3F3D56"/>
<path d="M344.596 256.279V318.79C344.596 319.226 344.757 319.645 345.042 319.953C345.328 320.262 345.714 320.435 346.118 320.436H432.462C432.866 320.435 433.253 320.262 433.538 319.953C433.823 319.645 433.984 319.226 433.984 318.79V256.279C433.984 255.842 433.824 255.423 433.539 255.113C433.253 254.804 432.866 254.63 432.462 254.629H346.118C345.714 254.63 345.327 254.804 345.041 255.113C344.756 255.423 344.596 255.842 344.596 256.279Z" fill="#FF944D"/>
<path d="M340.699 332.082C340.86 332.3 341.064 332.476 341.297 332.596C341.53 332.717 341.785 332.778 342.043 332.777H436.066C436.324 332.777 436.577 332.714 436.809 332.594C437.041 332.475 437.246 332.3 437.408 332.084C437.57 331.868 437.685 331.616 437.746 331.346C437.806 331.075 437.81 330.794 437.758 330.521L436.298 323.022C436.238 322.716 436.107 322.432 435.919 322.194C435.731 321.957 435.491 321.774 435.221 321.662C435.025 321.579 434.817 321.537 434.607 321.537H343.497C343.286 321.537 343.078 321.579 342.883 321.662C342.612 321.774 342.372 321.957 342.184 322.194C341.996 322.432 341.866 322.716 341.805 323.022L340.346 330.521C340.294 330.794 340.299 331.075 340.36 331.345C340.421 331.614 340.537 331.866 340.699 332.082Z" fill="#2F2E41"/>
<path d="M431.381 324.767H433.601C433.788 324.767 433.939 324.604 433.939 324.402V323.253C433.939 323.051 433.788 322.888 433.601 322.888H431.381C431.194 322.888 431.043 323.051 431.043 323.253V324.402C431.043 324.604 431.194 324.767 431.381 324.767Z" fill="#3F3D56"/>
<path d="M425.589 324.767H427.81C427.996 324.767 428.147 324.604 428.147 324.402V323.253C428.147 323.051 427.996 322.888 427.81 322.888H425.589C425.403 322.888 425.252 323.051 425.252 323.253V324.402C425.252 324.604 425.403 324.767 425.589 324.767Z" fill="#3F3D56"/>
<path d="M419.797 324.767H422.018C422.204 324.767 422.355 324.604 422.355 324.402V323.253C422.355 323.051 422.204 322.888 422.018 322.888H419.797C419.611 322.888 419.46 323.051 419.46 323.253V324.402C419.46 324.604 419.611 324.767 419.797 324.767Z" fill="#3F3D56"/>
<path d="M414.006 324.767H416.226C416.413 324.767 416.564 324.604 416.564 324.402V323.253C416.564 323.051 416.413 322.888 416.226 322.888H414.006C413.819 322.888 413.668 323.051 413.668 323.253V324.402C413.668 324.604 413.819 324.767 414.006 324.767Z" fill="#3F3D56"/>
<path d="M408.214 324.767H410.434C410.621 324.767 410.772 324.604 410.772 324.402V323.253C410.772 323.051 410.621 322.888 410.434 322.888H408.214C408.027 322.888 407.876 323.051 407.876 323.253V324.402C407.876 324.604 408.027 324.767 408.214 324.767Z" fill="#3F3D56"/>
<path d="M402.422 324.767H404.643C404.829 324.767 404.98 324.604 404.98 324.402V323.253C404.98 323.051 404.829 322.888 404.643 322.888H402.422C402.236 322.888 402.085 323.051 402.085 323.253V324.402C402.085 324.604 402.236 324.767 402.422 324.767Z" fill="#3F3D56"/>
<path d="M396.63 324.767H398.851C399.037 324.767 399.188 324.604 399.188 324.402V323.253C399.188 323.051 399.037 322.888 398.851 322.888H396.63C396.444 322.888 396.293 323.051 396.293 323.253V324.402C396.293 324.604 396.444 324.767 396.63 324.767Z" fill="#3F3D56"/>
<path d="M390.839 324.767H393.059C393.246 324.767 393.397 324.604 393.397 324.402V323.253C393.397 323.051 393.246 322.888 393.059 322.888H390.839C390.652 322.888 390.501 323.051 390.501 323.253V324.402C390.501 324.604 390.652 324.767 390.839 324.767Z" fill="#3F3D56"/>
<path d="M385.047 324.767H387.267C387.454 324.767 387.605 324.604 387.605 324.402V323.253C387.605 323.051 387.454 322.888 387.267 322.888H385.047C384.86 322.888 384.709 323.051 384.709 323.253V324.402C384.709 324.604 384.86 324.767 385.047 324.767Z" fill="#3F3D56"/>
<path d="M379.255 324.767H381.476C381.662 324.767 381.813 324.604 381.813 324.402V323.253C381.813 323.051 381.662 322.888 381.476 322.888H379.255C379.069 322.888 378.918 323.051 378.918 323.253V324.402C378.918 324.604 379.069 324.767 379.255 324.767Z" fill="#3F3D56"/>
<path d="M373.463 324.767H375.684C375.87 324.767 376.021 324.604 376.021 324.402V323.253C376.021 323.051 375.87 322.888 375.684 322.888H373.463C373.277 322.888 373.126 323.051 373.126 323.253V324.402C373.126 324.604 373.277 324.767 373.463 324.767Z" fill="#3F3D56"/>
<path d="M367.671 324.767H369.892C370.078 324.767 370.229 324.604 370.229 324.402V323.253C370.229 323.051 370.078 322.888 369.892 322.888H367.671C367.485 322.888 367.334 323.051 367.334 323.253V324.402C367.334 324.604 367.485 324.767 367.671 324.767Z" fill="#3F3D56"/>
<path d="M361.88 324.767H364.1C364.287 324.767 364.438 324.604 364.438 324.402V323.253C364.438 323.051 364.287 322.888 364.1 322.888H361.88C361.693 322.888 361.542 323.051 361.542 323.253V324.402C361.542 324.604 361.693 324.767 361.88 324.767Z" fill="#3F3D56"/>
<path d="M356.088 324.767H358.308C358.495 324.767 358.646 324.604 358.646 324.402V323.253C358.646 323.051 358.495 322.888 358.308 322.888H356.088C355.901 322.888 355.75 323.051 355.75 323.253V324.402C355.75 324.604 355.901 324.767 356.088 324.767Z" fill="#3F3D56"/>
<path d="M350.296 324.767H352.517C352.703 324.767 352.854 324.604 352.854 324.402V323.253C352.854 323.051 352.703 322.888 352.517 322.888H350.296C350.11 322.888 349.959 323.051 349.959 323.253V324.402C349.959 324.604 350.11 324.767 350.296 324.767Z" fill="#3F3D56"/>
<path d="M344.504 324.767H346.725C346.911 324.767 347.062 324.604 347.062 324.402V323.253C347.062 323.051 346.911 322.888 346.725 322.888H344.504C344.318 322.888 344.167 323.051 344.167 323.253V324.402C344.167 324.604 344.318 324.767 344.504 324.767Z" fill="#3F3D56"/>
<path d="M431.449 327.9H433.67C433.857 327.9 434.008 327.736 434.008 327.535V326.385C434.008 326.184 433.857 326.02 433.67 326.02H431.449C431.263 326.02 431.112 326.184 431.112 326.385V327.535C431.112 327.736 431.263 327.9 431.449 327.9Z" fill="#3F3D56"/>
<path d="M425.657 327.9H427.878C428.065 327.9 428.216 327.736 428.216 327.535V326.385C428.216 326.184 428.065 326.02 427.878 326.02H425.657C425.471 326.02 425.32 326.184 425.32 326.385V327.535C425.32 327.736 425.471 327.9 425.657 327.9Z" fill="#3F3D56"/>
<path d="M419.865 327.9H422.086C422.273 327.9 422.424 327.736 422.424 327.535V326.385C422.424 326.184 422.273 326.02 422.086 326.02H419.865C419.679 326.02 419.528 326.184 419.528 326.385V327.535C419.528 327.736 419.679 327.9 419.865 327.9Z" fill="#3F3D56"/>
<path d="M414.074 327.9H416.295C416.481 327.9 416.632 327.736 416.632 327.535V326.385C416.632 326.184 416.481 326.02 416.295 326.02H414.074C413.888 326.02 413.736 326.184 413.736 326.385V327.535C413.736 327.736 413.888 327.9 414.074 327.9Z" fill="#3F3D56"/>
<path d="M408.282 327.9H410.503C410.689 327.9 410.84 327.736 410.84 327.535V326.385C410.84 326.184 410.689 326.02 410.503 326.02H408.282C408.096 326.02 407.944 326.184 407.944 326.385V327.535C407.944 327.736 408.096 327.9 408.282 327.9Z" fill="#3F3D56"/>
<path d="M402.49 327.9H404.711C404.898 327.9 405.049 327.736 405.049 327.535V326.385C405.049 326.184 404.898 326.02 404.711 326.02H402.49C402.304 326.02 402.153 326.184 402.153 326.385V327.535C402.153 327.736 402.304 327.9 402.49 327.9Z" fill="#3F3D56"/>
<path d="M396.698 327.9H398.919C399.106 327.9 399.257 327.736 399.257 327.535V326.385C399.257 326.184 399.106 326.02 398.919 326.02H396.698C396.512 326.02 396.361 326.184 396.361 326.385V327.535C396.361 327.736 396.512 327.9 396.698 327.9Z" fill="#3F3D56"/>
<path d="M390.907 327.9H393.128C393.314 327.9 393.465 327.736 393.465 327.535V326.385C393.465 326.184 393.314 326.02 393.128 326.02H390.907C390.721 326.02 390.569 326.184 390.569 326.385V327.535C390.569 327.736 390.721 327.9 390.907 327.9Z" fill="#3F3D56"/>
<path d="M385.115 327.9H387.336C387.522 327.9 387.673 327.736 387.673 327.535V326.385C387.673 326.184 387.522 326.02 387.336 326.02H385.115C384.929 326.02 384.777 326.184 384.777 326.385V327.535C384.777 327.736 384.929 327.9 385.115 327.9Z" fill="#3F3D56"/>
<path d="M379.323 327.9H381.544C381.731 327.9 381.882 327.736 381.882 327.535V326.385C381.882 326.184 381.731 326.02 381.544 326.02H379.323C379.137 326.02 378.986 326.184 378.986 326.385V327.535C378.986 327.736 379.137 327.9 379.323 327.9Z" fill="#3F3D56"/>
<path d="M373.532 327.9H375.752C375.939 327.9 376.09 327.736 376.09 327.535V326.385C376.09 326.184 375.939 326.02 375.752 326.02H373.532C373.345 326.02 373.194 326.184 373.194 326.385V327.535C373.194 327.736 373.345 327.9 373.532 327.9Z" fill="#3F3D56"/>
<path d="M367.74 327.9H369.961C370.147 327.9 370.298 327.736 370.298 327.535V326.385C370.298 326.184 370.147 326.02 369.961 326.02H367.74C367.554 326.02 367.402 326.184 367.402 326.385V327.535C367.402 327.736 367.554 327.9 367.74 327.9Z" fill="#3F3D56"/>
<path d="M361.948 327.9H364.169C364.355 327.9 364.506 327.736 364.506 327.535V326.385C364.506 326.184 364.355 326.02 364.169 326.02H361.948C361.762 326.02 361.61 326.184 361.61 326.385V327.535C361.61 327.736 361.762 327.9 361.948 327.9Z" fill="#3F3D56"/>
<path d="M356.156 327.9H358.377C358.564 327.9 358.715 327.736 358.715 327.535V326.385C358.715 326.184 358.564 326.02 358.377 326.02H356.156C355.97 326.02 355.819 326.184 355.819 326.385V327.535C355.819 327.736 355.97 327.9 356.156 327.9Z" fill="#3F3D56"/>
<path d="M350.364 327.9H352.585C352.772 327.9 352.923 327.736 352.923 327.535V326.385C352.923 326.184 352.772 326.02 352.585 326.02H350.364C350.178 326.02 350.027 326.184 350.027 326.385V327.535C350.027 327.736 350.178 327.9 350.364 327.9Z" fill="#3F3D56"/>
<path d="M344.572 327.9H346.793C346.98 327.9 347.131 327.736 347.131 327.535V326.385C347.131 326.184 346.98 326.02 346.793 326.02H344.572C344.386 326.02 344.235 326.184 344.235 326.385V327.535C344.235 327.736 344.386 327.9 344.572 327.9Z" fill="#3F3D56"/>
<path d="M383.378 331.659H405.87C406.056 331.659 406.207 331.496 406.207 331.294V330.145C406.207 329.943 406.056 329.779 405.87 329.779H383.378C383.191 329.779 383.04 329.943 383.04 330.145V331.294C383.04 331.496 383.191 331.659 383.378 331.659Z" fill="#3F3D56"/>
<path d="M359.548 268.305H357.582C356.986 268.305 356.502 268.827 356.502 269.472C356.502 270.117 356.986 270.64 357.582 270.64H359.548C360.144 270.64 360.627 270.117 360.627 269.472C360.627 268.827 360.144 268.305 359.548 268.305Z" fill="white"/>
<path d="M382.034 268.305H380.068C379.472 268.305 378.989 268.827 378.989 269.472C378.989 270.117 379.472 270.64 380.068 270.64H382.034C382.63 270.64 383.114 270.117 383.114 269.472C383.114 268.827 382.63 268.305 382.034 268.305Z" fill="white"/>
<path d="M388.405 268.305H386.439C385.843 268.305 385.36 268.827 385.36 269.472C385.36 270.117 385.843 270.64 386.439 270.64H388.405C389.001 270.64 389.485 270.117 389.485 269.472C389.485 268.827 389.001 268.305 388.405 268.305Z" fill="white"/>
<path d="M375.918 268.11H363.698C363.102 268.11 362.619 268.633 362.619 269.278C362.619 269.922 363.102 270.445 363.698 270.445H375.918C376.514 270.445 376.997 269.922 376.997 269.278C376.997 268.633 376.514 268.11 375.918 268.11Z" fill="white"/>
<path d="M405.899 268.11H393.679C393.083 268.11 392.6 268.633 392.6 269.278C392.6 269.922 393.083 270.445 393.679 270.445H405.899C406.495 270.445 406.978 269.922 406.978 269.278C406.978 268.633 406.495 268.11 405.899 268.11Z" fill="white"/>
<path d="M365.544 273.575H363.578C362.982 273.575 362.499 274.098 362.499 274.743C362.499 275.387 362.982 275.91 363.578 275.91H365.544C366.141 275.91 366.624 275.387 366.624 274.743C366.624 274.098 366.141 273.575 365.544 273.575Z" fill="white"/>
<path d="M388.03 273.575H386.064C385.468 273.575 384.985 274.098 384.985 274.743C384.985 275.387 385.468 275.91 386.064 275.91H388.03C388.626 275.91 389.11 275.387 389.11 274.743C389.11 274.098 388.626 273.575 388.03 273.575Z" fill="white"/>
<path d="M394.401 273.575H392.435C391.839 273.575 391.356 274.098 391.356 274.743C391.356 275.387 391.839 275.91 392.435 275.91H394.401C394.997 275.91 395.481 275.387 395.481 274.743C395.481 274.098 394.997 273.575 394.401 273.575Z" fill="white"/>
<path d="M381.914 273.38H369.695C369.098 273.38 368.615 273.903 368.615 274.548C368.615 275.193 369.098 275.715 369.695 275.715H381.914C382.51 275.715 382.993 275.193 382.993 274.548C382.993 273.903 382.51 273.38 381.914 273.38Z" fill="white"/>
<path d="M411.896 273.38H399.676C399.08 273.38 398.597 273.903 398.597 274.548C398.597 275.193 399.08 275.715 399.676 275.715H411.896C412.492 275.715 412.975 275.193 412.975 274.548C412.975 273.903 412.492 273.38 411.896 273.38Z" fill="white"/>
<path d="M371.541 278.845H369.574C368.978 278.845 368.495 279.368 368.495 280.013C368.495 280.658 368.978 281.18 369.574 281.18H371.541C372.137 281.18 372.62 280.658 372.62 280.013C372.62 279.368 372.137 278.845 371.541 278.845Z" fill="white"/>
<path d="M394.027 278.845H392.061C391.465 278.845 390.981 279.368 390.981 280.013C390.981 280.658 391.465 281.18 392.061 281.18H394.027C394.623 281.18 395.106 280.658 395.106 280.013C395.106 279.368 394.623 278.845 394.027 278.845Z" fill="white"/>
<path d="M400.398 278.845H398.432C397.836 278.845 397.353 279.368 397.353 280.013C397.353 280.658 397.836 281.18 398.432 281.18H400.398C400.994 281.18 401.477 280.658 401.477 280.013C401.477 279.368 400.994 278.845 400.398 278.845Z" fill="white"/>
<path d="M387.91 278.651H375.691C375.095 278.651 374.611 279.173 374.611 279.818C374.611 280.463 375.095 280.986 375.691 280.986H387.91C388.506 280.986 388.99 280.463 388.99 279.818C388.99 279.173 388.506 278.651 387.91 278.651Z" fill="white"/>
<path d="M417.892 278.651H405.672C405.076 278.651 404.593 279.173 404.593 279.818C404.593 280.463 405.076 280.986 405.672 280.986H417.892C418.488 280.986 418.971 280.463 418.971 279.818C418.971 279.173 418.488 278.651 417.892 278.651Z" fill="white"/>
<path d="M377.537 284.116H375.571C374.974 284.116 374.491 284.638 374.491 285.283C374.491 285.928 374.974 286.451 375.571 286.451H377.537C378.133 286.451 378.616 285.928 378.616 285.283C378.616 284.638 378.133 284.116 377.537 284.116Z" fill="white"/>
<path d="M400.023 284.116H398.057C397.461 284.116 396.978 284.638 396.978 285.283C396.978 285.928 397.461 286.451 398.057 286.451H400.023C400.619 286.451 401.102 285.928 401.102 285.283C401.102 284.638 400.619 284.116 400.023 284.116Z" fill="white"/>
<path d="M406.394 284.116H404.428C403.832 284.116 403.349 284.638 403.349 285.283C403.349 285.928 403.832 286.451 404.428 286.451H406.394C406.99 286.451 407.473 285.928 407.473 285.283C407.473 284.638 406.99 284.116 406.394 284.116Z" fill="white"/>
<path d="M393.907 283.921H381.687C381.091 283.921 380.608 284.444 380.608 285.089C380.608 285.733 381.091 286.256 381.687 286.256H393.907C394.503 286.256 394.986 285.733 394.986 285.089C394.986 284.444 394.503 283.921 393.907 283.921Z" fill="white"/>
<path d="M382.034 305.073H380.068C379.472 305.073 378.989 305.595 378.989 306.24C378.989 306.885 379.472 307.408 380.068 307.408H382.034C382.63 307.408 383.114 306.885 383.114 306.24C383.114 305.595 382.63 305.073 382.034 305.073Z" fill="white"/>
<path d="M388.405 305.073H386.439C385.843 305.073 385.36 305.595 385.36 306.24C385.36 306.885 385.843 307.408 386.439 307.408H388.405C389.001 307.408 389.485 306.885 389.485 306.24C389.485 305.595 389.001 305.073 388.405 305.073Z" fill="white"/>
<path d="M405.899 305.267H393.679C393.083 305.267 392.6 305.79 392.6 306.435C392.6 307.08 393.083 307.602 393.679 307.602H405.899C406.495 307.602 406.978 307.08 406.978 306.435C406.978 305.79 406.495 305.267 405.899 305.267Z" fill="white"/>
<path d="M359.548 305.073H357.582C356.986 305.073 356.502 305.595 356.502 306.24C356.502 306.885 356.986 307.408 357.582 307.408H359.548C360.144 307.408 360.627 306.885 360.627 306.24C360.627 305.595 360.144 305.073 359.548 305.073Z" fill="white"/>
<path d="M375.918 305.267H363.698C363.102 305.267 362.619 305.79 362.619 306.435C362.619 307.08 363.102 307.602 363.698 307.602H375.918C376.514 307.602 376.997 307.08 376.997 306.435C376.997 305.79 376.514 305.267 375.918 305.267Z" fill="white"/>
<path d="M365.544 299.802H363.578C362.982 299.802 362.499 300.325 362.499 300.97C362.499 301.615 362.982 302.137 363.578 302.137H365.544C366.141 302.137 366.624 301.615 366.624 300.97C366.624 300.325 366.141 299.802 365.544 299.802Z" fill="white"/>
<path d="M388.03 299.802H386.064C385.468 299.802 384.985 300.325 384.985 300.97C384.985 301.615 385.468 302.137 386.064 302.137H388.03C388.626 302.137 389.11 301.615 389.11 300.97C389.11 300.325 388.626 299.802 388.03 299.802Z" fill="white"/>
<path d="M394.401 299.802H392.435C391.839 299.802 391.356 300.325 391.356 300.97C391.356 301.615 391.839 302.137 392.435 302.137H394.401C394.997 302.137 395.481 301.615 395.481 300.97C395.481 300.325 394.997 299.802 394.401 299.802Z" fill="white"/>
<path d="M381.914 299.997H369.695C369.098 299.997 368.615 300.52 368.615 301.164C368.615 301.809 369.098 302.332 369.695 302.332H381.914C382.51 302.332 382.993 301.809 382.993 301.164C382.993 300.52 382.51 299.997 381.914 299.997Z" fill="white"/>
<path d="M371.541 294.532H369.574C368.978 294.532 368.495 295.055 368.495 295.7C368.495 296.344 368.978 296.867 369.574 296.867H371.541C372.137 296.867 372.62 296.344 372.62 295.7C372.62 295.055 372.137 294.532 371.541 294.532Z" fill="white"/>
<path d="M394.027 294.532H392.061C391.465 294.532 390.981 295.055 390.981 295.7C390.981 296.344 391.465 296.867 392.061 296.867H394.027C394.623 296.867 395.106 296.344 395.106 295.7C395.106 295.055 394.623 294.532 394.027 294.532Z" fill="white"/>
<path d="M400.398 294.532H398.432C397.836 294.532 397.353 295.055 397.353 295.7C397.353 296.344 397.836 296.867 398.432 296.867H400.398C400.994 296.867 401.477 296.344 401.477 295.7C401.477 295.055 400.994 294.532 400.398 294.532Z" fill="white"/>
<path d="M387.91 294.727H375.691C375.095 294.727 374.611 295.249 374.611 295.894C374.611 296.539 375.095 297.062 375.691 297.062H387.91C388.506 297.062 388.99 296.539 388.99 295.894C388.99 295.249 388.506 294.727 387.91 294.727Z" fill="white"/>
<path d="M377.537 289.262H375.571C374.974 289.262 374.491 289.784 374.491 290.429C374.491 291.074 374.974 291.597 375.571 291.597H377.537C378.133 291.597 378.616 291.074 378.616 290.429C378.616 289.784 378.133 289.262 377.537 289.262Z" fill="white"/>
<path d="M400.023 289.262H398.057C397.461 289.262 396.978 289.784 396.978 290.429C396.978 291.074 397.461 291.597 398.057 291.597H400.023C400.619 291.597 401.102 291.074 401.102 290.429C401.102 289.784 400.619 289.262 400.023 289.262Z" fill="white"/>
<path d="M406.394 289.262H404.428C403.832 289.262 403.349 289.784 403.349 290.429C403.349 291.074 403.832 291.597 404.428 291.597H406.394C406.99 291.597 407.473 291.074 407.473 290.429C407.473 289.784 406.99 289.262 406.394 289.262Z" fill="white"/>
<path d="M393.907 289.456H381.687C381.091 289.456 380.608 289.979 380.608 290.624C380.608 291.269 381.091 291.791 381.687 291.791H393.907C394.503 291.791 394.986 291.269 394.986 290.624C394.986 289.979 394.503 289.456 393.907 289.456Z" fill="white"/>
<path d="M349.095 366.838L339.865 351.056L368.836 326.074L380.794 311.743C382.347 309.881 384.325 308.493 386.53 307.717C388.735 306.941 391.09 306.805 393.358 307.322C395.627 307.839 397.731 308.991 399.459 310.663C401.187 312.335 402.48 314.468 403.207 316.85C404.285 320.379 404.053 324.223 402.561 327.571C401.068 330.918 398.432 333.508 395.208 334.793L376.299 342.328L349.095 366.838Z" fill="#FFB6B6"/>
<path d="M132.533 252.407V329.113H182.209V252.407C182.21 251.855 182.047 251.318 181.745 250.874C181.442 250.429 181.016 250.102 180.529 249.939C180.299 249.857 180.059 249.816 179.817 249.819H134.932C134.617 249.818 134.306 249.885 134.015 250.015C133.724 250.144 133.459 250.335 133.236 250.575C133.014 250.815 132.837 251.101 132.716 251.415C132.595 251.73 132.533 252.067 132.533 252.407ZM151.919 278.763C151.932 277.251 152.497 275.806 153.49 274.741C154.483 273.677 155.824 273.08 157.222 273.08C158.62 273.08 159.962 273.677 160.955 274.741C161.948 275.806 162.512 277.251 162.525 278.763V287.664C162.518 289.18 161.956 290.632 160.963 291.701C159.969 292.771 158.624 293.371 157.222 293.371C155.821 293.371 154.476 292.771 153.482 291.701C152.488 290.632 151.926 289.18 151.919 287.664V278.763Z" fill="#2F2E41"/>
<path d="M132.38 326.66V334.057C132.381 334.44 132.522 334.807 132.772 335.079C133.022 335.35 133.361 335.505 133.715 335.508H181.027C181.381 335.506 181.721 335.352 181.971 335.08C182.221 334.808 182.361 334.44 182.361 334.057V326.66H132.38Z" fill="#3F3D56"/>
<path d="M54.3848 136.839V276.894C54.3861 278.678 55.0421 280.39 56.2087 281.652C57.3754 282.914 58.9574 283.623 60.6073 283.625H252.468C254.118 283.623 255.7 282.914 256.867 281.652C258.033 280.39 258.689 278.678 258.691 276.894V136.839C258.687 135.056 258.03 133.347 256.863 132.087C255.697 130.826 254.117 130.118 252.468 130.115H60.6073C58.9588 130.118 57.3783 130.827 56.2121 132.087C55.0458 133.347 54.3887 135.056 54.3848 136.839Z" fill="#3F3D56"/>
<path d="M58.8857 138.582V275.166C58.8873 276.119 59.2381 277.034 59.8614 277.708C60.4848 278.382 61.3298 278.762 62.2113 278.763H250.871C251.753 278.762 252.598 278.382 253.221 277.708C253.844 277.034 254.195 276.119 254.197 275.166V138.582C254.197 137.627 253.846 136.711 253.223 136.035C252.6 135.36 251.754 134.979 250.871 134.977H62.2113C61.3287 134.979 60.4829 135.36 59.8595 136.035C59.236 136.711 58.8858 137.627 58.8857 138.582Z" fill="white"/>
<path d="M93.898 335.007C94.09 335.267 94.3341 335.477 94.6119 335.621C94.8897 335.765 95.194 335.838 95.502 335.837H207.742C208.049 335.836 208.352 335.762 208.629 335.619C208.906 335.476 209.15 335.268 209.344 335.01C209.537 334.752 209.675 334.451 209.747 334.128C209.819 333.805 209.824 333.469 209.761 333.144L208.019 324.192C207.947 323.827 207.791 323.487 207.567 323.203C207.342 322.92 207.055 322.702 206.733 322.569C206.499 322.47 206.251 322.419 206 322.419H97.2374C96.9866 322.419 96.738 322.47 96.5045 322.569C96.182 322.702 95.8954 322.92 95.6708 323.203C95.4462 323.487 95.2907 323.827 95.2185 324.192L93.4762 333.144C93.4142 333.469 93.4199 333.805 93.4929 334.127C93.5658 334.449 93.7042 334.75 93.898 335.007Z" fill="#2F2E41"/>
<path d="M244.748 153.792H68.2203C68.0368 153.787 67.8622 153.706 67.7339 153.564C67.6055 153.422 67.5337 153.231 67.5337 153.032C67.5337 152.834 67.6055 152.643 67.7339 152.501C67.8622 152.359 68.0368 152.277 68.2203 152.273H244.748C244.932 152.277 245.107 152.359 245.235 152.501C245.363 152.643 245.435 152.834 245.435 153.032C245.435 153.231 245.363 153.422 245.235 153.564C245.107 153.706 244.932 153.787 244.748 153.792Z" fill="#3F3D56"/>
<path d="M80.2366 148.396C82.5088 148.396 84.3507 146.359 84.3507 143.846C84.3507 141.333 82.5088 139.297 80.2366 139.297C77.9645 139.297 76.1226 141.333 76.1226 143.846C76.1226 146.359 77.9645 148.396 80.2366 148.396Z" fill="#3F3D56"/>
<path d="M94.449 148.396C96.7212 148.396 98.5631 146.359 98.5631 143.846C98.5631 141.333 96.7212 139.297 94.449 139.297C92.1769 139.297 90.335 141.333 90.335 143.846C90.335 146.359 92.1769 148.396 94.449 148.396Z" fill="#3F3D56"/>
<path d="M108.661 148.396C110.934 148.396 112.775 146.359 112.775 143.846C112.775 141.333 110.934 139.297 108.661 139.297C106.389 139.297 104.547 141.333 104.547 143.846C104.547 146.359 106.389 148.396 108.661 148.396Z" fill="#3F3D56"/>
<path d="M236.19 140.422H226.096C225.896 140.427 225.707 140.516 225.567 140.67C225.428 140.825 225.35 141.032 225.35 141.248C225.35 141.464 225.428 141.671 225.567 141.826C225.707 141.98 225.896 142.069 226.096 142.075H236.19C236.391 142.071 236.583 141.983 236.724 141.828C236.865 141.674 236.944 141.465 236.944 141.248C236.944 141.031 236.865 140.822 236.724 140.668C236.583 140.513 236.391 140.425 236.19 140.422Z" fill="#3F3D56"/>
<path d="M236.19 143.526H226.096C225.896 143.53 225.706 143.619 225.567 143.774C225.427 143.928 225.349 144.136 225.349 144.352C225.349 144.568 225.427 144.776 225.567 144.93C225.706 145.084 225.896 145.174 226.096 145.178H236.19C236.391 145.176 236.583 145.088 236.725 144.933C236.866 144.778 236.945 144.569 236.945 144.352C236.945 144.134 236.866 143.926 236.725 143.771C236.583 143.616 236.391 143.528 236.19 143.526Z" fill="#3F3D56"/>
<path d="M236.19 146.629H226.096C225.896 146.634 225.707 146.724 225.567 146.878C225.428 147.032 225.35 147.24 225.35 147.456C225.35 147.672 225.428 147.879 225.567 148.033C225.707 148.188 225.896 148.277 226.096 148.282H236.19C236.391 148.279 236.583 148.191 236.724 148.036C236.865 147.881 236.944 147.673 236.944 147.456C236.944 147.239 236.865 147.03 236.724 146.875C236.583 146.721 236.391 146.632 236.19 146.629Z" fill="#3F3D56"/>
<path d="M479.546 329.906C479.85 330.866 480.428 331.696 481.196 332.278C481.964 332.86 482.883 333.164 483.82 333.145L502.137 332.635C503.081 332.616 503.994 332.266 504.74 331.638C505.485 331.01 506.023 330.138 506.272 329.152L508.864 299.171C509.783 299.621 510.784 299.844 511.794 299.822C512.671 299.798 513.535 299.588 514.337 299.203C515.138 298.818 515.862 298.266 516.467 297.578C517.071 296.89 517.544 296.081 517.86 295.195C518.175 294.31 518.326 293.366 518.304 292.417C518.282 291.468 518.087 290.534 517.731 289.666C517.375 288.799 516.865 288.016 516.229 287.362C515.594 286.708 514.845 286.196 514.027 285.855C513.208 285.514 512.335 285.351 511.459 285.375C511.055 285.373 510.653 285.419 510.258 285.51C509.829 285.008 509.308 284.608 508.727 284.337C508.147 284.066 507.52 283.93 506.888 283.937L478.714 284.724C478.48 284.733 478.248 284.765 478.019 284.817C477.401 284.942 476.815 285.208 476.3 285.598C475.785 285.988 475.354 286.493 475.035 287.079C474.715 287.665 474.516 288.318 474.449 288.994C474.383 289.67 474.451 290.353 474.65 290.998L479.546 329.906ZM509.395 297.135L511.24 289.99C511.449 289.165 511.454 288.294 511.254 287.466C511.343 287.466 511.422 287.42 511.512 287.42C512.776 287.392 514 287.907 514.914 288.853C515.828 289.799 516.357 291.098 516.387 292.466C516.417 293.834 515.944 295.159 515.072 296.15C514.2 297.142 513 297.718 511.735 297.754C510.918 297.782 510.109 297.568 509.395 297.135Z" fill="#2F2E41"/>
<path d="M478.019 284.817C478.619 288.53 485.368 291.14 493.483 290.686C500.945 290.314 507.046 287.48 508.164 284.121C507.75 283.988 507.32 283.926 506.889 283.937L478.714 284.724C478.48 284.733 478.248 284.764 478.019 284.817Z" fill="#3F3D56"/>
<path d="M494.97 313.431C495.007 313.421 495.042 313.404 495.074 313.381L499.052 310.565C499.1 310.531 499.139 310.485 499.167 310.43C499.194 310.375 499.208 310.314 499.208 310.252C499.208 310.19 499.194 310.129 499.167 310.074C499.139 310.02 499.1 309.973 499.052 309.939L494.918 307.01C494.88 306.983 494.837 306.964 494.792 306.955C494.748 306.945 494.702 306.946 494.657 306.956C494.613 306.966 494.57 306.985 494.533 307.013C494.495 307.04 494.463 307.076 494.438 307.117C494.413 307.158 494.396 307.204 494.387 307.252C494.379 307.301 494.379 307.351 494.389 307.399C494.398 307.447 494.416 307.493 494.442 307.533C494.468 307.574 494.501 307.608 494.539 307.635L498.231 310.252L494.696 312.756C494.627 312.804 494.577 312.877 494.553 312.962C494.53 313.047 494.535 313.138 494.568 313.219C494.601 313.3 494.66 313.366 494.733 313.404C494.806 313.443 494.89 313.453 494.97 313.431Z" fill="#FF944D"/>
<path d="M488.687 313.744C488.754 313.726 488.814 313.687 488.86 313.631C488.906 313.576 488.936 313.506 488.945 313.433C488.954 313.359 488.943 313.284 488.913 313.217C488.882 313.15 488.834 313.094 488.774 313.057L485.108 310.783L488.652 307.936C488.688 307.907 488.719 307.87 488.742 307.828C488.765 307.786 488.781 307.739 488.787 307.691C488.794 307.642 488.792 307.593 488.781 307.545C488.77 307.497 488.75 307.453 488.723 307.413C488.696 307.374 488.662 307.341 488.623 307.315C488.584 307.29 488.541 307.273 488.496 307.266C488.451 307.259 488.405 307.262 488.361 307.274C488.317 307.286 488.276 307.307 488.24 307.336L484.272 310.524C484.226 310.561 484.189 310.61 484.165 310.666C484.141 310.722 484.13 310.784 484.133 310.846C484.136 310.908 484.154 310.968 484.184 311.021C484.214 311.074 484.256 311.118 484.306 311.149L488.43 313.706C488.508 313.754 488.6 313.768 488.687 313.744Z" fill="#FF944D"/>
<path d="M494.574 315.899C494.607 315.89 494.639 315.875 494.669 315.856C494.707 315.83 494.741 315.797 494.768 315.757C494.795 315.717 494.814 315.672 494.825 315.625C494.836 315.577 494.838 315.527 494.831 315.479C494.824 315.43 494.808 315.384 494.784 315.342L489.146 305.314C489.098 305.229 489.021 305.168 488.932 305.145C488.843 305.122 488.749 305.138 488.671 305.189C488.593 305.241 488.536 305.324 488.515 305.42C488.493 305.516 488.508 305.618 488.555 305.703L494.194 315.731C494.232 315.799 494.29 315.852 494.358 315.883C494.427 315.913 494.502 315.919 494.574 315.899Z" fill="#FF944D"/>
<path d="M177.577 195.076H147.023C145.777 195.076 144.767 196.169 144.767 197.518V200.747C144.767 202.095 145.777 203.188 147.023 203.188H177.577C178.823 203.188 179.833 202.095 179.833 200.747V197.518C179.833 196.169 178.823 195.076 177.577 195.076Z" fill="#FF944D"/>
<path d="M195.386 211.3H129.214C127.968 211.3 126.958 212.393 126.958 213.741V216.97C126.958 218.318 127.968 219.411 129.214 219.411H195.386C196.632 219.411 197.643 218.318 197.643 216.97V213.741C197.643 212.393 196.632 211.3 195.386 211.3Z" fill="#E6E6E6"/>
<path d="M195.386 227.523H129.214C127.968 227.523 126.958 228.616 126.958 229.964V233.193C126.958 234.542 127.968 235.635 129.214 235.635H195.386C196.632 235.635 197.643 234.542 197.643 233.193V229.964C197.643 228.616 196.632 227.523 195.386 227.523Z" fill="#E6E6E6"/>
<path d="M200.995 281.849L201.145 282.36L201.153 282.378L205.664 297.215L210.854 314.313L220.618 346.444L220.713 351.435V351.452L221.439 391.604L219.427 397.047L221.691 405.972C221.691 405.972 220.65 392.481 215.066 400.228C211.903 404.631 208.204 409.136 205.167 413.359C209.592 415.296 214.088 417.048 218.654 418.615C219.64 418.956 220.634 419.28 221.628 419.605C221.841 419.673 222.054 419.741 222.267 419.809C237.405 424.652 253.054 427.373 268.833 427.906C269.653 427.932 270.457 427.949 271.238 427.966C271.514 427.974 271.782 427.983 272.051 427.983C272.934 427.992 273.809 428 274.693 428C276.475 428 278.25 427.972 280.017 427.915C293.093 427.516 306.093 425.614 318.798 422.241C318.711 416.567 318.474 409.938 318.135 402.856C317.977 399.384 314.436 395.621 314.223 391.987C314.073 389.256 317.252 386.688 317.086 383.915C316.014 366.843 314.673 373.397 313.679 361.307C313.576 360.121 313.482 358.986 313.395 357.903C312.756 350.138 312.314 345.284 312.314 345.284L316.558 316.352L323.222 270.928L322.71 270.015L322.134 269.708L286.981 250.886L285.072 245.596C284.516 244.072 283.551 242.763 282.302 241.837C281.052 240.911 279.575 240.411 278.061 240.4L254.904 240.298C253.702 240.292 252.516 240.596 251.445 241.185C250.374 241.774 249.448 242.631 248.744 243.685L242.474 253.079L200.995 281.849Z" fill="#3F3D56"/>
<path d="M225.958 339.294L220.713 351.435L217.132 359.728L210.973 394.616L207.889 398.156L205.246 385.622L177.592 392.264C176.685 386.812 177.35 392.448 176.79 386.467C176.947 386.297 177.113 386.126 177.279 385.956C177.72 385.512 178.091 385.094 178.083 384.693C177.768 364.063 178.714 328.954 186.617 307.683C187.855 304.21 189.487 300.917 191.475 297.88C191.633 297.65 191.783 297.419 191.933 297.189C195.577 291.669 197.88 286.234 201.145 282.369V282.36C201.165 282.343 201.184 282.323 201.2 282.301C201.212 282.294 201.223 282.286 201.232 282.275L223.663 269.409L224.625 298.656L225.311 319.679L225.958 339.294Z" fill="#3F3D56"/>
<path d="M306.84 342.743L313.392 357.907L315.679 363.188L321.837 398.072L324.911 401.604L327.559 389.072L328.803 388.796L351.245 383.768L357.786 406.24C359.26 403.583 359.841 400.457 359.43 397.39C359.019 394.323 357.642 391.503 355.531 389.408C355.084 388.971 354.712 388.545 354.723 388.143C355.095 363.878 353.723 319.571 341.332 301.335C337.397 295.548 335.036 289.784 331.6 285.757C331.59 285.746 331.59 285.734 331.579 285.734L323.219 270.927L322.709 270.018L322.135 269.707L306.84 342.743Z" fill="#3F3D56"/>
<path d="M267.151 233.169C284.165 233.169 297.958 218.249 297.958 199.843C297.958 181.438 284.165 166.517 267.151 166.517C250.137 166.517 236.344 181.438 236.344 199.843C236.344 218.249 250.137 233.169 267.151 233.169Z" fill="#FFB6B6"/>
<path d="M308.791 176.565C308.552 176.289 308.264 176.068 307.944 175.915C307.625 175.762 307.28 175.681 306.931 175.675L307.394 174.284C307.545 173.846 307.586 173.372 307.512 172.911C307.438 172.451 307.253 172.019 306.974 171.661C306.695 171.304 306.334 171.033 305.927 170.876C305.519 170.719 305.081 170.682 304.656 170.769L302.969 171.12L303.128 169.901C303.189 169.447 303.14 168.984 302.985 168.557C302.83 168.13 302.575 167.753 302.245 167.465C301.915 167.177 301.522 166.986 301.103 166.913C300.684 166.839 300.255 166.884 299.858 167.044C299.496 167.198 299.107 167.263 298.72 167.233C298.332 167.203 297.955 167.08 297.618 166.872C297.278 166.671 296.984 166.392 296.755 166.055C296.525 165.718 296.367 165.331 296.29 164.92L295.702 161.854L295.64 161.689C292.778 156.529 287.274 152.774 280.54 151.398C274.546 150.164 268.399 150.792 262.474 151.383C260.124 151.622 257.469 151.892 255.256 153.357C253.376 154.614 251.785 157.127 252.11 159.662C246.268 157.725 240.004 161.592 236.9 166.468C233.222 172.272 232.62 179.542 232.523 185.226C232.26 198.674 234.826 209.675 240.128 217.932C240.516 218.531 240.612 219.78 241.38 220.199L241.221 219.922C242.078 220.386 242.949 221.134 242.624 221.934C241.691 224.237 247.893 229.331 252.262 231.013C260.234 234.087 270.833 233.826 278.286 232.719L278.549 230.812C281.239 230.415 283.133 229.66 283.665 228.478C284.606 227.61 285.408 226.833 286.106 226.115L286.113 226.107C286.127 226.092 286.154 226.07 286.168 226.055C289.535 222.562 290.317 220.573 290.669 217.544C291.008 214.574 290.406 211.56 289.791 208.845C302.748 211.014 284.689 193.917 296.76 190.611C296.899 190.565 297.04 190.528 297.182 190.499C297.535 190.409 297.887 190.319 298.226 190.215C299.859 189.735 301.423 189.013 302.872 188.068C306.246 185.847 307.359 182.9 309.102 179.579C309.353 179.107 309.458 178.559 309.402 178.017C309.347 177.475 309.132 176.967 308.791 176.565Z" fill="#2F2E41"/>
<path d="M376.111 345.115C376.104 346.424 376.091 348.257 376.035 350.523C376.028 350.837 376.021 351.158 376.015 351.488C375.925 355.653 375.835 359.146 375.69 363.028C375.683 363.297 375.676 363.559 375.662 363.828C375.468 369.243 375.164 375.548 374.639 385.533C373.664 403.976 371.963 388.068 370.255 394.538C370.172 394.859 370.082 395.241 369.999 395.689C369.741 397.318 369.305 398.907 368.7 400.424C367.794 401.007 366.861 401.568 365.941 402.129C363.321 403.707 360.659 405.225 357.976 406.669C356.469 407.477 354.955 408.269 353.434 409.032C353.192 409.152 352.957 409.271 352.722 409.384C344.933 413.281 336.905 416.595 328.696 419.301C327.092 419.825 325.495 420.333 323.877 420.804C322.19 421.313 320.503 421.792 318.795 422.24C306.091 425.614 293.091 427.517 280.015 427.917C278.252 427.977 276.475 427.999 274.691 427.999C273.806 427.999 272.935 427.992 272.05 427.984C271.781 427.984 271.511 427.977 271.241 427.969C270.46 427.947 269.651 427.932 268.835 427.91C253.057 427.377 237.407 424.655 222.27 419.81L221.627 419.608C220.631 419.279 219.643 418.957 218.654 418.613C214.091 417.05 209.595 415.3 205.165 413.363C201.784 411.889 198.442 410.309 195.14 408.621C195.11 408.612 195.082 408.597 195.057 408.576C194.366 408.232 193.667 407.873 192.976 407.506C192.886 407.454 192.789 407.402 192.692 407.349C190.113 405.988 187.562 404.562 185.039 403.071C182.916 397.798 179.929 396.789 178.076 392.152C177.537 390.774 177.147 389.333 176.915 387.859C176.915 387.844 176.908 387.829 176.908 387.806C177.102 390.589 176.085 382.87 176.901 387.776C176.894 387.687 176.887 387.589 176.88 387.477C176.86 387.208 176.832 386.879 176.79 386.468C174.419 361.42 174.571 332.775 173.541 309.171C173.472 307.645 173.4 306.184 173.327 304.788C173.306 304.324 173.278 303.868 173.25 303.419C173.299 303.285 173.354 303.142 173.416 303.008C173.43 302.969 173.446 302.931 173.465 302.896C173.485 302.849 173.508 302.804 173.534 302.761C173.548 302.739 173.569 302.709 173.582 302.686C173.592 302.66 173.604 302.636 173.617 302.611C173.679 302.507 173.748 302.394 173.824 302.29C173.859 302.245 173.887 302.207 173.921 302.17C173.945 302.132 173.973 302.097 174.004 302.065C174.025 302.029 174.051 301.997 174.08 301.968C174.108 301.938 174.135 301.901 174.17 301.864C174.185 301.84 174.204 301.82 174.225 301.804C174.28 301.736 174.34 301.673 174.405 301.617C174.652 301.371 174.915 301.146 175.193 300.944C175.29 300.876 175.394 300.809 175.491 300.734C176.187 300.283 176.921 299.903 177.682 299.597C177.945 299.493 178.208 299.395 178.491 299.291C178.595 299.261 178.692 299.223 178.795 299.186C178.948 299.134 179.1 299.081 179.259 299.044C180.047 298.79 180.897 298.573 181.817 298.371C181.927 298.348 182.045 298.326 182.163 298.296C182.328 298.259 182.501 298.229 182.674 298.199C182.909 298.154 183.151 298.109 183.393 298.064C185.447 297.713 187.777 297.451 190.349 297.279C190.591 297.264 190.833 297.249 191.075 297.234C191.358 297.219 191.641 297.204 191.932 297.189C192.174 297.174 192.423 297.167 192.672 297.159C192.914 297.144 193.163 297.137 193.418 297.129C194.117 297.107 194.836 297.084 195.569 297.069C197.657 297.024 199.855 297.039 202.164 297.092C203.236 297.122 204.329 297.152 205.449 297.204C205.525 297.204 205.594 297.211 205.663 297.211C206.638 297.249 207.62 297.294 208.629 297.354C209.334 297.391 210.046 297.428 210.758 297.473C211.429 297.518 212.107 297.563 212.791 297.615C213.323 297.645 213.856 297.69 214.395 297.728C214.851 297.765 215.308 297.802 215.764 297.832L216.386 297.877C216.725 297.907 217.064 297.929 217.41 297.967C218.17 298.034 218.931 298.101 219.705 298.169C220.472 298.244 221.254 298.318 222.035 298.393C222.816 298.468 223.604 298.55 224.393 298.633C224.476 298.64 224.552 298.647 224.628 298.655C225.347 298.737 226.066 298.812 226.792 298.894C226.958 298.909 227.131 298.924 227.296 298.947C227.989 299.022 228.694 299.11 229.393 299.19C229.607 299.215 229.82 299.239 230.035 299.265C230.583 299.329 231.122 299.385 231.673 299.455C232.399 299.545 233.139 299.627 233.858 299.732C234.418 299.799 234.978 299.867 235.538 299.941C236.416 300.054 237.308 300.173 238.2 300.3C238.538 300.345 238.877 300.39 239.216 300.442C241.76 300.786 244.332 301.168 246.946 301.564C250.907 302.17 254.931 302.828 258.983 303.539C263.041 304.249 267.123 305 271.227 305.79C272.264 305.992 273.302 306.194 274.346 306.403C274.816 306.5 275.286 306.598 275.756 306.695C276.558 306.852 277.36 307.017 278.162 307.181C278.964 307.346 279.766 307.51 280.568 307.682C281.522 307.884 282.483 308.086 283.437 308.288C289.722 309.634 295.972 311.07 302.07 312.574C303.073 312.82 304.075 313.075 305.071 313.322C307.062 313.823 309.035 314.331 310.989 314.847C311.529 314.982 312.061 315.124 312.593 315.266C313.921 315.625 315.248 315.984 316.555 316.351L316.783 316.418C317.744 316.672 318.684 316.934 319.625 317.203C321.844 317.831 324.027 318.467 326.172 319.11C327.596 319.537 329.005 319.968 330.397 320.404C332.478 321.055 334.517 321.713 336.502 322.379C336.992 322.543 337.483 322.708 337.967 322.865C339.419 323.351 340.85 323.845 342.24 324.338C343.346 324.727 344.425 325.124 345.49 325.52C346.554 325.916 347.598 326.313 348.622 326.709C349.278 326.963 349.928 327.233 350.578 327.487C351.512 327.861 352.431 328.235 353.33 328.609C353.607 328.721 353.876 328.841 354.146 328.953C354.319 329.035 354.485 329.102 354.651 329.177C354.976 329.319 355.307 329.454 355.625 329.596C355.95 329.731 356.268 329.873 356.586 330.022C356.898 330.157 357.216 330.299 357.52 330.441C357.831 330.576 358.135 330.718 358.439 330.868C358.695 330.98 358.944 331.099 359.186 331.219C359.677 331.451 360.168 331.683 360.645 331.922C360.88 332.042 361.115 332.154 361.35 332.274L361.889 332.543C361.965 332.588 362.042 332.625 362.118 332.663C362.29 332.752 362.47 332.85 362.643 332.939C363.044 333.141 363.438 333.358 363.825 333.56C364.344 333.844 364.849 334.129 365.333 334.405C365.823 334.689 366.3 334.974 366.757 335.25C366.833 335.295 366.902 335.34 366.978 335.385C367.082 335.445 367.185 335.512 367.289 335.572C367.642 335.789 367.981 336.013 368.319 336.23C368.983 336.671 369.612 337.105 370.2 337.539C370.331 337.636 370.456 337.733 370.587 337.823C371.023 338.16 371.438 338.489 371.825 338.825C371.825 338.833 371.825 338.833 371.832 338.833C371.963 338.938 372.087 339.05 372.212 339.154C372.316 339.259 372.426 339.349 372.53 339.454C372.889 339.79 373.221 340.112 373.526 340.441C373.628 340.542 373.724 340.65 373.816 340.762C373.856 340.799 373.893 340.839 373.927 340.882C374.065 341.032 374.189 341.181 374.307 341.331C374.325 341.351 374.341 341.374 374.355 341.398C374.521 341.608 374.673 341.817 374.818 342.026C374.888 342.131 374.964 342.236 375.026 342.341C375.109 342.468 375.192 342.602 375.261 342.729C375.323 342.834 375.378 342.946 375.434 343.051C375.58 343.321 375.705 343.603 375.807 343.896C375.885 344.095 375.947 344.3 375.994 344.509C376.046 344.708 376.085 344.911 376.111 345.115Z" fill="#2F2E41"/>
<path opacity="0.2" d="M376.111 345.115C376.104 346.424 376.09 348.257 376.035 350.523C376.028 350.837 376.014 351.159 376.007 351.488C375.938 354.666 375.834 358.593 375.689 363.028C375.682 363.297 375.675 363.559 375.662 363.828C375.468 369.243 375.164 375.548 374.638 385.533C373.663 403.976 371.963 388.068 370.255 394.538C365.512 391.381 360.313 388.076 354.754 384.68C353.751 384.067 352.74 383.451 351.719 382.833C340.601 376.124 328.184 369.093 315.22 362.13C314.709 361.854 314.19 361.577 313.678 361.308C283.983 345.429 251.571 329.985 225.312 319.679C220.244 317.689 215.404 315.894 210.855 314.316C201.272 311.003 192.989 308.684 186.615 307.682C179.977 306.635 175.393 307.009 173.54 309.171C173.471 307.645 173.4 306.184 173.326 304.788C173.298 304.324 173.271 303.868 173.243 303.419C173.286 303.296 173.341 303.178 173.395 303.06C173.403 303.043 173.408 303.025 173.416 303.008C173.429 302.969 173.445 302.931 173.464 302.896C173.485 302.849 173.508 302.804 173.534 302.761C173.556 302.708 173.584 302.658 173.617 302.611C173.679 302.507 173.748 302.394 173.824 302.29C173.88 302.211 173.94 302.136 174.004 302.065C174.025 302.029 174.051 301.997 174.08 301.968C174.107 301.938 174.135 301.901 174.17 301.863C174.184 301.84 174.203 301.82 174.225 301.804C174.28 301.736 174.34 301.673 174.405 301.617C174.651 301.371 174.915 301.146 175.193 300.943C175.29 300.876 175.393 300.809 175.49 300.734C176.187 300.283 176.921 299.903 177.682 299.597C177.945 299.493 178.207 299.395 178.491 299.291C178.595 299.261 178.691 299.223 178.795 299.186C178.947 299.134 179.099 299.081 179.258 299.044C180.046 298.79 180.897 298.573 181.816 298.371C182.093 298.311 182.383 298.251 182.674 298.199C182.909 298.154 183.151 298.109 183.393 298.064C185.446 297.713 187.776 297.451 190.348 297.279C190.59 297.264 190.832 297.249 191.074 297.234C191.358 297.219 191.641 297.204 191.931 297.189C192.173 297.174 192.422 297.167 192.671 297.159C192.913 297.144 193.162 297.137 193.418 297.129C194.116 297.107 194.835 297.084 195.568 297.069C197.656 297.032 199.855 297.047 202.164 297.099C203.236 297.122 204.328 297.159 205.448 297.211C205.517 297.211 205.593 297.219 205.662 297.219C206.637 297.249 207.626 297.301 208.629 297.354C209.334 297.391 210.046 297.428 210.758 297.473C211.429 297.518 212.106 297.563 212.791 297.615C213.323 297.645 213.855 297.69 214.395 297.727C214.851 297.765 215.307 297.802 215.764 297.832C216.31 297.877 216.856 297.922 217.409 297.967C218.17 298.034 218.93 298.101 219.705 298.169C220.472 298.244 221.253 298.318 222.035 298.393C222.816 298.468 223.604 298.55 224.392 298.632C224.475 298.64 224.551 298.647 224.627 298.655C225.346 298.737 226.065 298.812 226.791 298.894C230.815 299.335 234.957 299.852 239.216 300.442C241.76 300.794 244.337 301.17 246.945 301.572C250.907 302.178 254.931 302.836 258.983 303.539C263.041 304.249 267.122 305 271.227 305.79C272.264 305.992 273.301 306.194 274.345 306.403C275.617 306.658 276.89 306.917 278.162 307.181C278.964 307.346 279.766 307.51 280.568 307.682C281.522 307.884 282.483 308.086 283.437 308.288C289.722 309.634 295.972 311.07 302.07 312.574C303.072 312.82 304.075 313.075 305.071 313.321C307.062 313.823 309.035 314.331 310.989 314.847C311.528 314.989 312.061 315.131 312.593 315.274C313.927 315.633 315.248 315.992 316.555 316.351V316.358C316.631 316.373 316.707 316.395 316.783 316.418C317.737 316.68 318.684 316.941 319.624 317.211C321.844 317.839 324.026 318.472 326.172 319.11C327.596 319.544 329.007 319.97 330.396 320.404C332.477 321.062 334.517 321.721 336.501 322.379C336.992 322.543 337.483 322.708 337.967 322.865C339.419 323.358 340.843 323.85 342.24 324.338C343.346 324.727 344.425 325.124 345.489 325.52C346.554 325.916 347.598 326.313 348.621 326.709C349.285 326.963 349.935 327.225 350.578 327.479C351.518 327.853 352.431 328.227 353.33 328.609C353.606 328.721 353.876 328.841 354.145 328.953C354.65 329.162 355.141 329.379 355.625 329.596C355.95 329.731 356.268 329.873 356.586 330.022C356.897 330.157 357.215 330.299 357.519 330.441C357.831 330.576 358.135 330.718 358.439 330.868C358.695 330.98 358.944 331.099 359.186 331.219C359.677 331.451 360.168 331.683 360.645 331.922C360.88 332.042 361.115 332.154 361.35 332.274L361.889 332.543C361.965 332.588 362.041 332.625 362.117 332.663C362.705 332.962 363.272 333.261 363.825 333.56C364.344 333.844 364.848 334.128 365.332 334.405C365.906 334.734 366.452 335.056 366.978 335.385C367.081 335.445 367.185 335.512 367.289 335.572C367.641 335.789 367.98 336.013 368.319 336.23C368.983 336.671 369.612 337.105 370.2 337.539C370.78 337.973 371.32 338.399 371.824 338.825C371.824 338.833 371.824 338.833 371.831 338.833C372.073 339.042 372.308 339.252 372.53 339.454C372.889 339.79 373.221 340.112 373.525 340.441C373.627 340.542 373.724 340.65 373.816 340.762C373.856 340.798 373.893 340.839 373.926 340.882C374.071 341.054 374.217 341.226 374.355 341.398C374.521 341.608 374.673 341.817 374.818 342.026C374.887 342.131 374.963 342.236 375.026 342.341C375.109 342.468 375.191 342.602 375.261 342.729C375.323 342.834 375.378 342.946 375.433 343.051C375.58 343.321 375.705 343.603 375.807 343.896C375.882 344.096 375.945 344.301 375.993 344.509C376.046 344.708 376.085 344.911 376.111 345.115Z" fill="black"/>
</g>
<defs>
<clipPath id="clip0_171_16">
<rect width="544" height="428" fill="white"/>
</clipPath>
</defs>
</svg>
